<svg width="16" height="16" viewBox="0 0 16 16" fill="none" xmlns="http://www.w3.org/2000/svg">
<g clip-path="url(#clip0_77_147)">
<path d="M5.33438 0.000244141C4.15617 0.000244141 3.20105 0.955371 3.20105 2.13358V3.20024C3.20105 4.37845 4.15617 5.33358 5.33438 5.33358C6.51259 5.33358 7.46772 4.37845 7.46772 3.20024V2.13358C7.46772 0.955371 6.51259 0.000244141 5.33438 0.000244141Z" fill="#FFDA47"/>
<path d="M10.6675 0.000244141C9.4893 0.000244141 8.53418 0.955371 8.53418 2.13358V3.20024C8.53418 4.37845 9.4893 5.33358 10.6675 5.33358C11.8458 5.33358 12.8008 4.37845 12.8008 3.20024V2.13358C12.8008 0.955371 11.8458 0.000244141 10.6675 0.000244141Z" fill="#FFDA47"/>
<path d="M2.13346 5.3335C0.955248 5.3335 0.00012207 6.28862 0.00012207 7.46683V8.00016C0.00012207 9.17837 0.955248 10.1335 2.13346 10.1335C3.31166 10.1335 4.26679 9.17837 4.26679 8.00016V7.46683C4.26679 6.28862 3.31166 5.3335 2.13346 5.3335Z" fill="#FFDA47"/>
<path d="M13.8669 5.3335C12.6886 5.3335 11.7335 6.28862 11.7335 7.46683V8.00016C11.7335 9.17837 12.6886 10.1335 13.8669 10.1335C15.0451 10.1335 16.0002 9.17837 16.0002 8.00016V7.46683C16.0002 6.28862 15.0451 5.3335 13.8669 5.3335Z" fill="#FFDA47"/>
<path d="M10.2545 8.29765C9.08668 6.87962 6.9151 6.87962 5.74731 8.29765L2.63495 12.0769C1.34639 13.6416 2.45941 16.0001 4.4864 16.0001C4.77602 16.0001 5.06166 15.9327 5.3207 15.8032L5.70435 15.6113C7.15006 14.8884 8.85173 14.8884 10.2974 15.6113L10.6811 15.8032C10.9401 15.9327 11.2257 16.0001 11.5153 16.0001C13.5423 16.0001 14.6554 13.6416 13.3669 12.0769L10.2545 8.29765Z" fill="#FFDA47"/>
</g>
<defs>
<clipPath id="clip0_77_147">
<rect width="16" height="16" fill="white"/>
</clipPath>
</defs>
</svg>
