<svg width="42" height="42" viewBox="0 0 42 42" fill="none" xmlns="http://www.w3.org/2000/svg">
<path d="M31.6996 34.892L38.2248 28.3706C38.4168 28.1788 38.5246 27.9186 38.5246 27.6473V18.6922C38.5246 17.2795 37.3787 16.1343 35.9652 16.1343C34.5518 16.1343 33.4058 17.2795 33.4058 18.6922V26.3658" stroke="#7C58D3" stroke-width="3.83681" stroke-linecap="round" stroke-linejoin="round"/>
<path d="M31.6999 28.071L33.164 26.6077C33.3191 26.4527 33.4062 26.2426 33.4062 26.0237C33.4062 25.7108 33.2292 25.4248 32.9492 25.2848L32.1935 24.9073C30.8799 24.2507 29.2931 24.5081 28.2545 25.546L26.7275 27.0721C26.0875 27.7117 25.728 28.5792 25.728 29.4836V34.892" stroke="#7C58D3" stroke-width="3.83681" stroke-linecap="round" stroke-linejoin="round"/>
<path d="M11.2249 34.892L4.69976 28.3706C4.50775 28.1788 4.3999 27.9186 4.3999 27.6473V18.6922C4.3999 17.2795 5.54577 16.1343 6.95928 16.1343C8.37279 16.1343 9.51865 17.2795 9.51865 18.6922V26.3658" stroke="#7C58D3" stroke-width="3.83681" stroke-linecap="round" stroke-linejoin="round"/>
<path d="M11.2247 28.071L9.7605 26.6077C9.6055 26.4527 9.51843 26.2426 9.51843 26.0237C9.51843 25.7108 9.6953 25.4248 9.9753 25.2848L10.731 24.9073C12.0448 24.2507 13.6315 24.5081 14.6701 25.546L16.1971 27.0721C16.837 27.7117 17.1966 28.5792 17.1966 29.4836V34.892" stroke="#7C58D3" stroke-width="3.83681" stroke-linecap="round" stroke-linejoin="round"/>
<path d="M24.3063 21.25H18.6186V17.2711H14.6375V11.587H18.6186V7.60805H24.3063V11.587H28.2875V17.2711H24.3063V21.25Z" stroke="#7C58D3" stroke-width="3.83681" stroke-linecap="round" stroke-linejoin="round"/>
</svg>
