<svg width="30" height="31" viewBox="0 0 30 31" fill="none" xmlns="http://www.w3.org/2000/svg">
<g clip-path="url(#clip0_77_499)">
<path d="M28.0406 14.7154C29.2189 14.1266 29.9633 12.9228 29.9633 11.6064V11.2494C29.9633 9.32927 28.4063 7.77315 26.485 7.77315C24.9878 7.77315 23.659 8.73065 23.1853 10.1499C22.8262 11.2261 22.6429 12.2593 21.4034 12.2593H8.59782C7.31759 12.2593 7.1212 11.0658 6.81588 10.1499C6.34269 8.73065 5.01336 7.77315 3.51664 7.77315C1.59537 7.77315 0.0383301 9.32927 0.0383301 11.2494V11.6064C0.0383301 12.9228 0.782714 14.1266 1.96101 14.7154C2.40194 14.9355 2.40194 15.5645 1.96101 15.7846C0.782714 16.3734 0.0383301 17.5772 0.0383301 18.8936V19.2506C0.0383301 21.1707 1.59537 22.7269 3.51618 22.7269C5.01336 22.7269 6.34222 21.7693 6.81588 20.3501C7.17497 19.2739 7.35827 18.2407 8.59782 18.2407H21.4034C22.6836 18.2407 22.88 19.4342 23.1853 20.3501C23.659 21.7693 24.9883 22.7269 26.485 22.7269C28.4058 22.7269 29.9629 21.1707 29.9629 19.2506V18.8936C29.9629 17.5767 29.2185 16.3734 28.0402 15.7846C27.5997 15.5645 27.5997 14.9355 28.0406 14.7154Z" fill="#7C58D3"/>
</g>
<defs>
<clipPath id="clip0_77_499">
<rect width="29.925" height="29.9074" fill="white" transform="translate(0.0383301 0.296265)"/>
</clipPath>
</defs>
</svg>
