<!DOCTYPE svg PUBLIC "-//W3C//DTD SVG 1.1//EN" "http://www.w3.org/Graphics/SVG/1.1/DTD/svg11.dtd">
<!-- Uploaded to: SVG Repo, www.svgrepo.com, Transformed by: SVG Repo Mixer Tools -->
<svg fill="#7111c0" version="1.1" id="Capa_1" xmlns="http://www.w3.org/2000/svg" xmlns:xlink="http://www.w3.org/1999/xlink" width="256px" height="256px" viewBox="-142.38 -142.38 729.70 729.70" xml:space="preserve" stroke="#7111c0" stroke-width="0.00444945">
<g id="SVGRepo_bgCarrier" stroke-width="0"/>
<g id="SVGRepo_tracerCarrier" stroke-linecap="round" stroke-linejoin="round"/>
<g id="SVGRepo_iconCarrier"> <g> <g> <path d="M248.911,348.733c-10.136,0-18.783,6.271-22.315,15.143c-3.54-8.872-12.182-15.143-22.318-15.143 c-13.271,0-24.039,10.76-24.039,24.028c0,0-6.18,31.159,48.07,62.327c0,0,44.626-24.557,44.626-62.327 C272.945,359.493,262.179,348.733,248.911,348.733z M228.706,375.875c0.782-4.108,3.956-6.952,7.094-6.357 c3.139,0.599,5.053,4.407,4.281,8.506c-0.782,4.107-3.956,6.951-7.094,6.362C229.843,383.786,227.923,379.977,228.706,375.875z M217.171,369.517c3.143-0.595,6.32,2.249,7.094,6.357c0.782,4.103-1.138,7.911-4.284,8.511c-3.135,0.589-6.319-2.255-7.094-6.362 C212.113,373.924,214.025,370.116,217.171,369.517z M204.144,388.727c-0.64-3.342,0.924-6.435,3.476-6.917 c2.56-0.482,5.144,1.823,5.776,5.165c0.629,3.341-0.924,6.438-3.479,6.921C207.358,394.383,204.768,392.068,204.144,388.727z M241.888,408.47c-1.112,2.401-3.026,3.407-4.794,3.777c-2.214,0.468-5.789-0.654-7.987-1.147 c-2.036-0.457-4.448-0.771-6.162-0.314c-3.54,0.954-8.176,3.407-12.126-1.636c-1.942-2.478-1.673-5.057-0.906-7.032 c0.812-2.107,3.562-4.606,5.189-6.175c1.595-1.534,3.443-3.534,4.573-5.459c0.759-1.29,1.661-2.219,2.529-2.885 c1.699-1.289,5.406-1.681,7.401-0.64c0.198,0.112,0.396,0.224,0.579,0.341c1.904,1.198,3.885,4.397,5.276,6.169 c0.132,0.173,0.279,0.346,0.421,0.528c1.401,1.772,3.905,4.459,5.221,6.297C242.634,402.458,243.518,404.956,241.888,408.47z M248.825,388.727c-0.63,3.336-3.215,5.651-5.773,5.169c-2.56-0.482-4.113-3.585-3.484-6.921c0.63-3.342,3.215-5.647,5.774-5.165 C247.9,382.292,249.464,385.396,248.825,388.727z"/> <path d="M128.865,44.321c2.78,0,5.04,3.539,5.04,7.898v384.824c0,4.362,3.54,7.901,7.899,7.901h43.561 c4.362,0,7.901-3.539,7.901-7.901v-18.58c-23.267-22.907-22.523-42.878-21.962-47.499c0.307-17.342,14.51-31.352,31.93-31.352 c8.556,0,16.48,3.352,22.318,9.064c5.829-5.713,13.756-9.064,22.317-9.064c17.601,0,31.931,14.325,31.931,31.936 c0,23.033-14.087,41.273-27.116,53.258v12.232c0,4.362,3.534,7.896,7.896,7.896h42.588c4.362,0,7.902-3.534,7.902-7.896V52.219 c0-4.359,2.249-7.898,5.021-7.898c2.783,0,5.027-3.54,5.027-7.901v-2.354c0-4.362-3.539-7.901-7.901-7.901h-12.314 c-4.361,0-7.901-3.537-7.901-7.899V7.901c0-4.362-3.539-7.901-7.9-7.901h-40.563c-4.362,0-7.901,3.54-7.901,7.901v10.364 c0,4.362-3.539,7.899-7.901,7.899h-97.012c-4.36,0-7.899,3.539-7.899,7.901v2.346C123.825,40.781,126.084,44.321,128.865,44.321z M264.704,76.378c0-4.359,3.539-7.899,7.901-7.899h12.497c4.361,0,7.9,3.54,7.9,7.899v28.488c0,4.361-3.539,7.901-7.9,7.901 h-12.497c-4.362,0-7.901-3.54-7.901-7.901V76.378z M264.704,148.853c0-4.361,3.539-7.901,7.901-7.901h12.497 c4.361,0,7.9,3.54,7.9,7.901v28.495c0,4.362-3.539,7.901-7.9,7.901h-12.497c-4.362,0-7.901-3.539-7.901-7.901V148.853z M264.704,221.326c0-4.359,3.539-7.898,7.901-7.898h12.497c4.361,0,7.9,3.54,7.9,7.898v28.498c0,4.362-3.539,7.901-7.9,7.901 h-12.497c-4.362,0-7.901-3.539-7.901-7.901V221.326z M264.704,293.804c0-4.362,3.539-7.901,7.901-7.901h12.497 c4.361,0,7.9,3.539,7.9,7.901v28.492c0,4.362-3.539,7.901-7.9,7.901h-12.497c-4.362,0-7.901-3.539-7.901-7.901V293.804z M208.33,76.378c0-4.359,3.54-7.899,7.901-7.899h12.504c4.362,0,7.901,3.54,7.901,7.899v28.488c0,4.361-3.539,7.901-7.901,7.901 h-12.504c-4.362,0-7.901-3.54-7.901-7.901V76.378z M208.33,148.853c0-4.361,3.54-7.901,7.901-7.901h12.504 c4.362,0,7.901,3.54,7.901,7.901v28.495c0,4.362-3.539,7.901-7.901,7.901h-12.504c-4.362,0-7.901-3.539-7.901-7.901V148.853z M208.33,221.326c0-4.359,3.54-7.898,7.901-7.898h12.504c4.362,0,7.901,3.54,7.901,7.898v28.498c0,4.362-3.539,7.901-7.901,7.901 h-12.504c-4.362,0-7.901-3.539-7.901-7.901V221.326z M208.33,293.804c0-4.362,3.54-7.901,7.901-7.901h12.504 c4.362,0,7.901,3.539,7.901,7.901v28.492c0,4.362-3.539,7.901-7.901,7.901h-12.504c-4.362,0-7.901-3.539-7.901-7.901V293.804z M151.957,76.378c0-4.359,3.54-7.899,7.899-7.899h12.497c4.362,0,7.901,3.54,7.901,7.899v28.488c0,4.361-3.539,7.901-7.901,7.901 h-12.497c-4.359,0-7.899-3.54-7.899-7.901V76.378z M151.957,148.853c0-4.361,3.54-7.901,7.899-7.901h12.497 c4.362,0,7.901,3.54,7.901,7.901v28.495c0,4.362-3.539,7.901-7.901,7.901h-12.497c-4.359,0-7.899-3.539-7.899-7.901V148.853z M151.957,221.326c0-4.359,3.54-7.898,7.899-7.898h12.497c4.362,0,7.901,3.54,7.901,7.898v28.498c0,4.362-3.539,7.901-7.901,7.901 h-12.497c-4.359,0-7.899-3.539-7.899-7.901V221.326z M151.957,293.804c0-4.362,3.54-7.901,7.899-7.901h12.497 c4.362,0,7.901,3.539,7.901,7.901v28.492c0,4.362-3.539,7.901-7.901,7.901h-12.497c-4.359,0-7.899-3.539-7.899-7.901V293.804z"/> </g> </g> </g>
</svg>