<svg width="45" height="34" viewBox="0 0 45 34" fill="none" xmlns="http://www.w3.org/2000/svg">
<path d="M12.7955 0.467285H6.21482C2.78257 0.467285 -0.00012207 3.24393 -0.00012207 6.66871V13.235C-0.00012207 16.6598 2.78257 19.4364 6.21482 19.4364H6.86584C7.4117 19.4364 7.92303 19.7052 8.23265 20.155C8.54089 20.6048 8.60858 21.1775 8.41127 21.6856L4.69954 31.2835C4.50223 31.7923 4.56992 32.365 4.87817 32.8141C5.18778 33.2639 5.69911 33.5327 6.24497 33.5327H10.6148C11.2312 33.5327 11.7973 33.1906 12.0824 32.646L17.3582 22.5887C18.4441 20.5185 19.0116 18.2161 19.0116 15.8794V6.66862C19.0118 3.24393 16.2277 0.467285 12.7955 0.467285Z" fill="#FF47A2"/>
<path d="M37.8808 0.467285H31.3C27.8677 0.467285 25.0852 3.24393 25.0852 6.66871V13.235C25.0852 16.6598 27.8678 19.4364 31.3 19.4364H31.9496C32.4955 19.4364 33.0082 19.7052 33.3164 20.155C33.6261 20.6048 33.6924 21.1775 33.4965 21.6856L29.7834 31.2836C29.5861 31.7924 29.6538 32.3651 29.9634 32.8142C30.2716 33.264 30.783 33.5328 31.3303 33.5328H35.6987C36.3151 33.5328 36.8812 33.1907 37.1678 32.6461L42.4421 22.5888C43.5281 20.5185 44.0956 18.2162 44.0956 15.8794V6.66862C44.0956 3.24393 41.3129 0.467285 37.8808 0.467285Z" fill="#FF47A2"/>
</svg>
