<svg width="45" height="34" viewBox="0 0 45 34" fill="none" xmlns="http://www.w3.org/2000/svg">
<path d="M12.7955 0.467285H6.21482C2.78257 0.467285 -0.00012207 3.24393 -0.00012207 6.66871V13.235C-0.00012207 16.6598 2.78257 19.4364 6.21482 19.4364H6.86584C7.4117 19.4364 7.92303 19.7052 8.23265 20.155C8.54089 20.6048 8.60858 21.1774 8.41127 21.6856L4.69954 31.2835C4.50223 31.7923 4.56992 32.365 4.87817 32.8141C5.18778 33.2639 5.69911 33.5327 6.24497 33.5327H10.6148C11.2312 33.5327 11.7973 33.1906 12.0824 32.646L17.3582 22.5887C18.4441 20.5185 19.0116 18.2161 19.0116 15.8794V6.66862C19.0118 3.24392 16.2277 0.467285 12.7955 0.467285Z" fill="#7C58D3"/>
<path d="M37.8803 0.467285H31.2995C27.8672 0.467285 25.0847 3.24393 25.0847 6.66871V13.235C25.0847 16.6598 27.8673 19.4364 31.2995 19.4364H31.9491C32.495 19.4364 33.0077 19.7052 33.3159 20.155C33.6256 20.6048 33.6919 21.1775 33.496 21.6856L29.7829 31.2836C29.5856 31.7924 29.6533 32.3651 29.9629 32.8142C30.2712 33.264 30.7825 33.5328 31.3298 33.5328H35.6982C36.3146 33.5328 36.8807 33.1907 37.1674 32.6461L42.4416 22.5888C43.5276 20.5185 44.0951 18.2162 44.0951 15.8794V6.66862C44.0951 3.24393 41.3125 0.467285 37.8803 0.467285Z" fill="#7C58D3"/>
</svg>
