<svg width="36" height="48" viewBox="0 0 36 48" fill="none" xmlns="http://www.w3.org/2000/svg">
<path d="M17.994 0.499725C8.52014 0.499725 0.809574 8.19309 0.80957 17.642C0.809564 34.2681 17.0266 46.9076 17.0266 46.9076C17.5963 47.3601 18.4039 47.3601 18.9736 46.9076C18.9736 46.9076 35.1938 34.2681 35.1937 17.642C35.1937 8.19309 27.4679 0.499725 17.994 0.499725ZM17.994 9.85312C22.2902 9.85312 25.8157 13.3571 25.8157 17.642C25.8157 21.927 22.2903 25.4401 17.994 25.4401C13.6978 25.4401 10.1845 21.927 10.1846 17.642C10.1846 13.3571 13.6978 9.85312 17.994 9.85312Z" fill="#7C58D3"/>
</svg>
