<svg width="42" height="34" viewBox="0 0 42 34" fill="none" xmlns="http://www.w3.org/2000/svg">
<path d="M41.8332 2.33671V10.6481L20.9998 18.9596L0.166504 10.6481V2.33671C0.166504 1.78562 0.385997 1.25711 0.776698 0.867441C1.1674 0.477767 1.6973 0.25885 2.24984 0.25885H39.7498C40.3024 0.25885 40.8323 0.477767 41.223 0.867441C41.6137 1.25711 41.8332 1.78562 41.8332 2.33671ZM0.166504 15.1238V31.4267C0.166504 31.9778 0.385997 32.5063 0.776698 32.896C1.1674 33.2856 1.6973 33.5046 2.24984 33.5046H39.7498C40.3024 33.5046 40.8323 33.2856 41.223 32.896C41.6137 32.5063 41.8332 31.9778 41.8332 31.4267V15.1238L20.9998 23.4353L0.166504 15.1238Z" fill="#7C58D3"/>
</svg>
