<svg width="42" height="42" viewBox="0 0 42 42" fill="none" xmlns="http://www.w3.org/2000/svg">
<path fill-rule="evenodd" clip-rule="evenodd" d="M0.166992 20.8817C0.166992 9.406 9.49439 0.103119 21.0003 0.103119C32.5062 0.103119 41.8337 9.406 41.8337 20.8817C41.8337 32.3573 32.5062 41.6603 21.0003 41.6603C9.49439 41.6603 0.166992 32.3573 0.166992 20.8817ZM28.9839 26.19C28.3455 27.1448 27.052 27.4028 26.0947 26.7664L20.6776 23.1644C19.5776 22.433 18.917 21.2019 18.917 19.8835V19.8428V10.4924C18.917 9.34484 19.8497 8.41455 21.0003 8.41455C22.1509 8.41455 23.0837 9.34484 23.0837 10.4924V19.7696L28.4059 23.3084C29.3632 23.9451 29.622 25.2352 28.9839 26.19Z" fill="#7C58D3"/>
</svg>
