<svg width="46" height="46" viewBox="0 0 46 46" fill="none" xmlns="http://www.w3.org/2000/svg">
<g clip-path="url(#clip0_187_1094)">
<path d="M44.0809 29.5239L37.5545 23.0005L44.0809 16.4756C44.8965 15.66 45.4468 14.652 45.7388 13.5725C46.1753 11.9496 46.0504 10.1752 45.4734 8.45281C44.8965 6.73176 43.8605 5.04854 42.4047 3.59423C40.4647 1.65693 38.1231 0.456712 35.8138 0.104345C34.6599 -0.0697727 33.5059 -0.0304211 32.4278 0.260134C31.3482 0.550688 30.3389 1.10242 29.5247 1.92081L22.9997 8.44715L16.4763 1.92081C15.6592 1.10242 14.6513 0.550688 13.5732 0.260134C11.949 -0.17507 10.1773 -0.0487492 8.45485 0.525442C6.73237 1.1052 5.0478 2.14119 3.59628 3.59415C1.65772 5.53432 0.458846 7.87583 0.106479 10.1851C-0.0689859 11.339 -0.0310718 12.4916 0.262268 13.5725C0.552823 14.6506 1.10455 15.6599 1.92015 16.4756L8.4465 23.0005L1.92015 29.5239C1.10455 30.3396 0.552823 31.3475 0.262268 32.4271C-0.17572 34.0499 -0.0494 35.8243 0.527577 37.5439C1.10455 39.2679 2.14054 40.9496 3.59628 42.4053C5.53637 44.3426 7.87787 45.5428 10.1871 45.8952C11.3411 46.0707 12.4908 46.03 13.5732 45.7365C14.6513 45.4473 15.6592 44.8942 16.4763 44.0772L22.9997 37.5523L29.5247 44.0772C30.3389 44.8942 31.3482 45.4473 32.4278 45.7365C34.0506 46.1745 35.8236 46.0482 37.5461 45.474C39.2672 44.8942 40.9531 43.8582 42.4047 42.4053C44.342 40.4652 45.5423 38.1237 45.8946 35.8116C46.0701 34.6563 46.0294 33.5065 45.7388 32.427C45.4468 31.3475 44.8965 30.3396 44.0809 29.5239ZM31.3665 3.76125C31.8424 3.28391 32.4208 2.96111 33.1073 2.77297C34.1307 2.49365 35.3997 2.55115 36.7179 2.99336C38.0361 3.43279 39.3866 4.25396 40.5658 5.43459C42.1395 7.00542 43.0688 8.88936 43.3229 10.5767C43.4507 11.4204 43.4128 12.2079 43.2261 12.8916C43.0394 13.5781 42.7151 14.1564 42.2393 14.6351L35.7143 21.16L33.7013 19.1441L32.5698 18.0154L28.1815 13.6243L27.0486 12.4942L24.8418 10.2861L31.3665 3.76125ZM14.6345 42.2383C14.1571 42.7127 13.5803 43.0384 12.8938 43.2266C11.869 43.5059 10.6013 43.4484 9.28312 43.0062C7.96493 42.564 6.61171 41.7456 5.43385 40.5649C3.86159 38.9941 2.9309 37.1102 2.67817 35.4242C2.55041 34.5791 2.58832 33.7915 2.77502 33.1079C2.96171 32.4214 3.28605 31.8417 3.76051 31.3644L10.2854 24.8395L12.4964 27.0491L13.6264 28.1792L18.0148 32.5675L19.1463 33.7018L21.1593 35.712L14.6345 42.2383ZM43.0055 36.7185C42.5661 38.0339 41.7449 39.3857 40.5657 40.5649C38.9962 42.1386 37.1095 43.0693 35.4235 43.3221C34.5812 43.4484 33.7909 43.4105 33.1073 43.2266C32.4208 43.0384 31.8424 42.7127 31.3665 42.2383L24.8416 35.7119L22.9998 33.8716L12.1273 23.0005L10.2855 21.1601L3.7606 14.6352C3.28614 14.1579 2.9618 13.5781 2.77511 12.8917C2.49578 11.8697 2.5505 10.5993 2.99415 9.28251C3.43492 7.96567 4.25618 6.61245 5.43394 5.43459C7.00477 3.85811 8.89014 2.92885 10.5775 2.67756C11.4198 2.54836 12.2101 2.58915 12.8938 2.77306C13.5788 2.95976 14.1586 3.28409 14.6345 3.76134L21.1594 10.2862L22.9997 12.128L33.8736 23.0006L35.714 24.8396L42.2389 31.3631C42.7148 31.8417 43.039 32.4215 43.2257 33.108C43.5052 34.1299 43.4491 35.4003 43.0055 36.7185Z" fill="#0E081E"/>
<path d="M22.3726 29.5661L23.3763 30.5699L30.5708 23.3754L29.5671 22.373L22.3726 29.5661Z" fill="#0E081E"/>
<path d="M22.6235 15.4297L15.4304 22.6243L16.4341 23.6266L23.6272 16.4335L22.6235 15.4297Z" fill="#0E081E"/>
<path d="M32.5697 27.9854C32.887 28.1721 33.3012 28.1272 33.5736 27.8549C33.8432 27.5854 33.8881 27.1698 33.7014 26.8526C33.6677 26.7908 33.6255 26.7361 33.5736 26.6841C33.2493 26.3627 32.7242 26.3627 32.4026 26.6841C32.0783 27.0084 32.0783 27.5334 32.4026 27.8549C32.4546 27.9083 32.5107 27.9504 32.5697 27.9854Z" fill="#0E081E"/>
<path d="M28.0525 32.2067C27.7283 31.8825 27.2045 31.8825 26.8816 32.2067C26.5587 32.5282 26.5587 33.0532 26.8816 33.3775C26.9322 33.4294 26.9869 33.4715 27.0487 33.5052C27.3659 33.6934 27.783 33.647 28.0525 33.3775C28.3236 33.1052 28.3685 32.691 28.1818 32.3737C28.1466 32.3148 28.103 32.2572 28.0525 32.2067Z" fill="#0E081E"/>
<path d="M38.0471 32.3316C37.7242 32.6531 37.7242 33.1781 38.0471 33.5024C38.3701 33.8253 38.8952 33.8238 39.2182 33.5024C39.5425 33.1781 39.5425 32.6544 39.2182 32.3316C38.8952 32.0074 38.3701 32.0074 38.0471 32.3316Z" fill="#0E081E"/>
<path d="M32.5261 37.8515C32.2046 38.1744 32.2031 38.6994 32.5261 39.0222C32.8504 39.3451 33.3755 39.3451 33.6985 39.0222C34.0214 38.6993 34.0214 38.1743 33.697 37.8515C33.3741 37.5286 32.8504 37.5286 32.5261 37.8515Z" fill="#0E081E"/>
<path d="M33.6356 33.4392C33.9585 33.1163 33.9585 32.5913 33.6356 32.2685C33.3126 31.9442 32.7875 31.9442 32.4646 32.2685C32.1417 32.5914 32.1417 33.1164 32.4646 33.4392C32.7876 33.762 33.3126 33.7621 33.6356 33.4392Z" fill="#0E081E"/>
<path d="M13.669 7.95171C13.992 7.62881 13.9933 7.1052 13.669 6.7823C13.3447 6.45806 12.8209 6.45806 12.4981 6.78087C12.1751 7.10511 12.1738 7.62881 12.4981 7.95306C12.821 8.27596 13.3461 8.27596 13.669 7.95171Z" fill="#0E081E"/>
<path d="M6.97659 12.3021C6.65364 12.625 6.65364 13.1501 6.97659 13.4729C7.30088 13.7958 7.82466 13.7958 8.14896 13.4729C8.4719 13.15 8.4719 12.6249 8.14896 12.3021C7.82457 11.9792 7.30088 11.9792 6.97659 12.3021Z" fill="#0E081E"/>
<path d="M13.7323 13.5346C14.0552 13.2117 14.0552 12.6881 13.7323 12.3652C13.408 12.0409 12.8842 12.0409 12.5599 12.3652C12.237 12.6881 12.237 13.2117 12.5613 13.5346C12.8843 13.8589 13.408 13.8589 13.7323 13.5346Z" fill="#0E081E"/>
<path d="M18.1441 13.5992C18.467 13.9206 18.9907 13.9206 19.315 13.5992C19.638 13.2749 19.638 12.7499 19.315 12.4284C19.2631 12.3751 19.2083 12.3329 19.1465 12.2992C18.8292 12.1111 18.415 12.156 18.1441 12.4284C17.8731 12.698 17.8281 13.1135 18.0149 13.4307C18.0486 13.4897 18.0907 13.5473 18.1441 13.5992Z" fill="#0E081E"/>
<path d="M13.6267 17.8191C13.3108 17.6324 12.8938 17.6773 12.6242 17.9468C12.3519 18.2192 12.307 18.6333 12.4965 18.9506C12.5287 19.0124 12.5723 19.0657 12.6242 19.1176C12.9458 19.4433 13.4709 19.4433 13.7952 19.119C14.1167 18.7933 14.1167 18.2711 13.7952 17.9468C13.7432 17.8949 13.6857 17.8528 13.6267 17.8191Z" fill="#0E081E"/>
<path d="M40.2696 12.6166C40.5925 12.2937 40.5925 11.7686 40.2696 11.4444C39.9466 11.1215 39.4215 11.1215 39.0987 11.4444C38.7757 11.7686 38.7757 12.2937 39.0987 12.6166C39.4216 12.9395 39.9466 12.9394 40.2696 12.6166Z" fill="#0E081E"/>
<path d="M34.7498 7.09542C35.0727 6.77252 35.0727 6.24748 34.7483 5.92467C34.4254 5.60177 33.9017 5.60177 33.5774 5.92467C33.2545 6.24757 33.2545 6.77261 33.5774 7.09542C33.9017 7.41967 34.4254 7.41967 34.7498 7.09542Z" fill="#0E081E"/>
<path d="M34.4566 16.0868C34.1336 16.411 34.1336 16.9361 34.4566 17.259C34.7795 17.5819 35.3046 17.5819 35.6289 17.259C35.9519 16.9347 35.9504 16.411 35.6289 16.0868C35.3046 15.7653 34.781 15.7653 34.4566 16.0868Z" fill="#0E081E"/>
<path d="M30.1077 11.7377C30.4306 11.4148 30.4306 10.8898 30.1077 10.567C29.7834 10.2441 29.2596 10.2441 28.9368 10.567C28.6125 10.8912 28.6125 11.4149 28.9353 11.7377C29.2583 12.0621 29.7834 12.0606 30.1077 11.7377Z" fill="#0E081E"/>
<path d="M34.0169 11.0064C33.6939 11.3293 33.6939 11.8543 34.0169 12.1771C34.3398 12.5 34.8649 12.5 35.1892 12.1771C35.5122 11.8543 35.5107 11.3292 35.1892 11.0064C34.8649 10.6835 34.3412 10.6835 34.0169 11.0064Z" fill="#0E081E"/>
<path d="M16.0874 34.4556C15.7645 34.7799 15.7645 35.3036 16.0874 35.6264C16.4117 35.9506 16.9355 35.9506 17.2598 35.6264C17.5827 35.3035 17.5827 34.7799 17.2598 34.4556C16.9368 34.1327 16.4117 34.1327 16.0874 34.4556Z" fill="#0E081E"/>
<path d="M11.7388 30.1067C12.0631 29.7824 12.0631 29.2587 11.7388 28.9359C11.4159 28.6117 10.8908 28.6117 10.5679 28.9359C10.2436 29.2588 10.245 29.7824 10.5679 30.1067C10.8908 30.4295 11.4159 30.4295 11.7388 30.1067Z" fill="#0E081E"/>
<path d="M11.4463 39.098C11.1234 39.4209 11.1234 39.946 11.4463 40.2688C11.7693 40.5916 12.2944 40.5917 12.6172 40.2688C12.9401 39.9459 12.9402 39.4208 12.6172 39.098C12.2943 38.7752 11.7693 38.7751 11.4463 39.098Z" fill="#0E081E"/>
<path d="M5.92556 33.5782C5.60261 33.9011 5.60261 34.4247 5.92556 34.749C6.24851 35.0719 6.77364 35.0704 7.09649 34.749C7.42079 34.4247 7.42079 33.8997 7.09649 33.5782C6.77355 33.254 6.24842 33.254 5.92556 33.5782Z" fill="#0E081E"/>
<path d="M12.1783 35.1884C12.5012 34.8641 12.5012 34.3391 12.1783 34.0176C11.8553 33.6934 11.3302 33.6934 11.0073 34.0176C10.6844 34.3391 10.6844 34.8641 11.0073 35.1884C11.3303 35.5113 11.8554 35.5113 12.1783 35.1884Z" fill="#0E081E"/>
</g>
<defs>
<clipPath id="clip0_187_1094">
<rect width="46" height="46" fill="white" transform="translate(0.000244141)"/>
</clipPath>
</defs>
</svg>
