<svg width="46" height="46" viewBox="0 0 46 46" fill="none" xmlns="http://www.w3.org/2000/svg">
<g clip-path="url(#clip0_182_883)">
<path d="M24.0619 15.3676C22.9529 14.2546 21.6028 13.3752 20.1018 12.8043C19.3931 13.5919 18.9105 14.5507 18.709 15.5904C18.6542 15.8707 18.6213 16.1517 18.6062 16.4314C18.7296 16.4738 18.8502 16.5191 18.9682 16.5705C20.2759 17.1249 21.3986 18.053 22.1853 19.2222C22.8172 20.1571 23.2367 21.2393 23.3779 22.4121C23.4149 22.7047 23.4327 23.0029 23.4327 23.3072C23.4327 24.3229 23.2285 25.2798 22.8598 26.1529C22.4019 27.2297 21.6932 28.1823 20.8036 28.9232C20.6145 29.0829 20.4157 29.231 20.2101 29.3701C19.0409 30.1596 17.6454 30.6175 16.1225 30.6175C15.1095 30.6175 14.1541 30.4125 13.2796 30.0445C11.9691 29.49 10.8505 28.5613 10.061 27.3927C9.27415 26.2255 8.8163 24.8267 8.8163 23.3072C8.8163 22.2921 9.01782 21.3367 9.38789 20.4615C9.88553 19.2867 10.6874 18.2615 11.6949 17.4959C11.6757 17.2306 11.6674 16.9654 11.6674 16.7001C11.6674 15.3377 11.8812 14.008 12.2884 12.751C10.7298 13.3178 9.33165 14.219 8.18569 15.3678C6.15423 17.3931 4.89309 20.2121 4.89723 23.3073C4.89318 26.4032 6.15432 29.2221 8.18569 31.2481C9.87718 32.9423 12.1198 34.0958 14.6145 34.4309V37.9305H9.4125V40.9448H14.6145V46H17.6302V40.9447H22.8364V37.9304H17.6302V34.4308C20.1265 34.0957 22.3717 32.9422 24.0619 31.248C24.6266 30.6832 25.1298 30.0596 25.5669 29.3845C26.6978 27.6333 27.3545 25.5409 27.3517 23.3072C27.3517 22.7829 27.3147 22.2641 27.2461 21.7583C26.9021 19.277 25.7479 17.0496 24.0619 15.3676Z" fill="#0E081E"/>
<path d="M31.3574 0V3.01435H35.9577L31.2039 7.76816C29.2025 6.24252 26.7969 5.4714 24.4035 5.47355C21.5372 5.4714 18.6518 6.57144 16.464 8.76336C14.8986 10.3247 13.8925 12.2416 13.4429 14.2546C13.4374 14.2792 13.4347 14.3039 13.4278 14.3245C13.41 14.4027 13.3949 14.4815 13.3799 14.5562C13.3524 14.7015 13.3278 14.8461 13.3045 14.9907C13.2894 15.0778 13.2771 15.169 13.2675 15.2559C13.2497 15.3883 13.2346 15.5239 13.2236 15.6596C13.2168 15.7378 13.2085 15.8166 13.2045 15.8947C13.2018 15.9338 13.199 15.9735 13.1963 16.0154C13.1894 16.0942 13.1867 16.175 13.1839 16.2531C13.1784 16.4012 13.1743 16.5519 13.1743 16.7C13.1743 16.8144 13.1784 16.9289 13.1812 17.0461C13.1867 17.1612 13.1936 17.275 13.199 17.3929L13.2168 17.6465C13.2168 17.6883 13.2236 17.7308 13.2263 17.776C13.4677 20.2803 14.5491 22.7286 16.464 24.6401C17.6237 25.8005 18.9807 26.6558 20.4242 27.2021C20.8613 26.7203 21.2178 26.1624 21.4742 25.562C21.7387 24.9322 21.8895 24.2659 21.9196 23.5785C20.9396 23.2262 20.0239 22.6594 19.2344 21.8699C18.5202 21.1523 17.9856 20.3319 17.6306 19.4518C17.377 18.8301 17.2139 18.1791 17.1425 17.5224C17.096 17.1337 17.085 16.7418 17.1028 16.3532C17.1083 16.2565 17.1151 16.1633 17.1206 16.0695C17.1274 16.0003 17.1329 15.931 17.1452 15.8611C17.1452 15.8343 17.1507 15.8077 17.1535 15.7802C17.1603 15.7138 17.1686 15.6446 17.1809 15.5787C17.196 15.4883 17.2111 15.3944 17.2289 15.3046C17.3083 14.894 17.4221 14.4904 17.5729 14.0983C17.6004 14.0263 17.6277 13.9571 17.6607 13.8845C17.6909 13.8091 17.7236 13.7337 17.7593 13.6583C17.7895 13.5829 17.8252 13.5075 17.8649 13.4349C17.8978 13.3602 17.9375 13.2875 17.9801 13.2156C18.1788 12.8468 18.4133 12.4919 18.6819 12.1539C18.7367 12.0847 18.7943 12.0155 18.8506 11.9489C18.9753 11.8071 19.1014 11.6686 19.2371 11.533C19.4056 11.3643 19.577 11.2074 19.7552 11.0627C20.3392 10.5775 20.9792 10.1971 21.6509 9.92639C22.9682 9.39254 24.4184 9.25678 25.8016 9.52542C27.1861 9.79405 28.4965 10.4562 29.5739 11.5329C30.2909 12.2505 30.8213 13.0708 31.1764 13.9502C31.7138 15.2675 31.8495 16.715 31.5808 18.0988C31.3094 19.4819 30.6459 20.7931 29.5739 21.8699C29.3382 22.1049 29.0915 22.3222 28.8352 22.5148C28.8502 22.78 28.8584 23.0453 28.8584 23.307C28.8626 24.6579 28.6473 25.9896 28.2347 27.2562C29.7358 26.7133 31.1434 25.8394 32.3429 24.64C34.5321 22.4544 35.6355 19.569 35.6327 16.6999C35.6354 14.3058 34.8638 11.9043 33.3353 9.89952L38.0892 5.14571V9.74805H41.1034V0H31.3574Z" fill="#0E081E"/>
</g>
<defs>
<clipPath id="clip0_182_883">
<rect width="46" height="46" fill="white" transform="translate(0.000244141)"/>
</clipPath>
</defs>
</svg>
