<svg width="46" height="46" viewBox="0 0 46 46" fill="none" xmlns="http://www.w3.org/2000/svg">
<g clip-path="url(#clip0_182_880)">
<path d="M42.1668 0.00012207H3.8337C1.71635 0.00012207 0.000244141 1.71614 0.000244141 3.83366V42.166C0.000244141 44.2833 1.71635 45.9994 3.8337 45.9994H42.1668C44.2841 45.9994 46.0002 44.2833 46.0002 42.166V3.83366C46.0002 1.71614 44.2841 0.00012207 42.1668 0.00012207ZM32.7366 17.2387H26.8704L27.8955 11.115L26.9438 10.9218L25.9915 10.7271L24.4244 17.2387H13.2639L10.7347 9.88033C14.3165 7.72174 18.5132 6.47813 23.001 6.47813C27.488 6.47813 31.6839 7.72174 35.2658 9.88033L32.7366 17.2387Z" fill="#0E081E"/>
</g>
<defs>
<clipPath id="clip0_182_880">
<rect width="46" height="46" fill="white" transform="translate(0.000244141)"/>
</clipPath>
</defs>
</svg>
