<svg width="46" height="46" viewBox="0 0 46 46" fill="none" xmlns="http://www.w3.org/2000/svg">
<g clip-path="url(#clip0_180_866)">
<path d="M46 13.9448V32.0559H0L0 13.9448H4.43972L46 13.9448Z" fill="#0E081E"/>
<path d="M3.21436 13.9443L3.21436 20.794H3.93311L3.93311 13.9443H3.21436Z" fill="#999999"/>
<path d="M7.09912 13.9449V17.3705H7.81787V13.9449H7.09912Z" fill="#999999"/>
<path d="M10.9849 13.9442V20.7939H11.7036V13.9442H10.9849Z" fill="#999999"/>
<path d="M14.8696 13.9449V17.3705H15.5884V13.9449H14.8696Z" fill="#999999"/>
<path d="M18.7522 13.9442V20.7939H19.4709V13.9442H18.7522Z" fill="#999999"/>
<path d="M22.6406 13.9449V17.3705H23.3594V13.9449H22.6406Z" fill="#999999"/>
<path d="M26.5256 13.9442V20.7939H27.2444V13.9442H26.5256Z" fill="#999999"/>
<path d="M30.4104 13.9449V17.3705H31.1292V13.9449H30.4104Z" fill="#999999"/>
<path d="M34.2966 13.9442V20.7939H35.0154V13.9442H34.2966Z" fill="#999999"/>
<path d="M42.0686 13.9442V20.7939H42.7874V13.9442H42.0686Z" fill="#999999"/>
<path d="M38.1802 13.9449V17.3705H38.8989V13.9449H38.1802Z" fill="#999999"/>
</g>
<defs>
<clipPath id="clip0_180_866">
<rect width="46" height="46" fill="white" transform="matrix(0 -1 1 0 0 46)"/>
</clipPath>
</defs>
</svg>
