<svg width="46" height="46" viewBox="0 0 46 46" fill="none" xmlns="http://www.w3.org/2000/svg">
<g clip-path="url(#clip0_182_1089)">
<path d="M19.8655 17.8241L24.1366 22.0953L22.2048 24.0272L17.9336 19.756L16.0382 21.6512L20.3095 25.9225L18.2682 27.9638L13.9969 23.6926L12.1016 25.5879L16.3728 29.8592L14.3316 31.9003L10.0603 27.6292L6.7069 30.9826L8.1329 32.4085L4.23269 36.3086L6.52479 38.6006L0.000244141 45.1253L3.93666 44.6878L8.27431 40.3502L10.5664 42.6422L14.4665 38.742L15.8924 40.168L33.1333 22.9271L23.9478 13.7417L19.8655 17.8241Z" fill="#0E081E"/>
<path d="M43.8497 9.07608L37.7989 3.02537L35.6483 0.874695L35.4169 1.10631C34.998 1.52516 34.8588 2.14544 34.9732 2.80966C35.0879 3.4737 35.4559 4.18157 36.0494 4.7749L42.1 10.8256C43.2876 12.0133 44.9304 12.2964 45.7687 11.4582L46.0003 11.2266L43.8497 9.07608Z" fill="#0E081E"/>
<path d="M35.4297 6.48804L29.9623 11.9556L27.1313 9.12459C26.8226 8.81598 26.3222 8.81598 26.0136 9.12459L24.9444 10.1939C24.6357 10.5026 24.6357 11.003 24.9444 11.3117L35.5634 21.9308C35.8721 22.2394 36.3725 22.2394 36.6812 21.9308L37.7504 20.8617C38.059 20.553 38.059 20.0526 37.7504 19.7439L34.9194 16.9129L40.3869 11.4454L35.4297 6.48804Z" fill="#0E081E"/>
</g>
<defs>
<clipPath id="clip0_182_1089">
<rect width="46" height="46" fill="white" transform="translate(0.000244141)"/>
</clipPath>
</defs>
</svg>
