<svg width="14" height="14" viewBox="0 0 14 14" fill="none" xmlns="http://www.w3.org/2000/svg">
<path d="M10.8047 9.47138C10.9126 9.36351 11.0874 9.36351 11.1953 9.47138C11.6833 9.95938 12.4067 10.0685 13 9.79871V12.3333C13.3682 12.3333 13.6667 12.6318 13.6667 13C13.6667 13.3682 13.3682 13.6666 13 13.6666H1C0.631816 13.6666 0.333336 13.3682 0.333336 13C0.333336 12.6318 0.631816 12.3333 1 12.3333V9.79871C1.59329 10.0685 2.31672 9.95938 2.80474 9.47138C2.91258 9.36351 3.08742 9.36351 3.19526 9.47138C3.8238 10.0999 4.84287 10.0999 5.47141 9.47138C5.57925 9.36351 5.75407 9.36351 5.86194 9.47138C6.49047 10.0999 7.50954 10.0999 8.13807 9.47138C8.24594 9.36351 8.42074 9.36351 8.5286 9.47138C9.15714 10.0999 10.1762 10.0999 10.8047 9.47138ZM9.66667 2.99998C10.0349 2.99998 10.3333 3.29846 10.3333 3.66665V4.99998H11C12.1046 4.99998 13 5.89538 13 6.99998V8.05718L12.5286 8.52858C12.4207 8.63645 12.2459 8.63645 12.1381 8.52858C11.5095 7.90005 10.4905 7.90005 9.86194 8.52858C9.75407 8.63645 9.57927 8.63645 9.4714 8.52858C8.84287 7.90005 7.8238 7.90005 7.19527 8.52858C7.0874 8.63645 6.9126 8.63645 6.80474 8.52858C6.1762 7.90005 5.15714 7.90005 4.5286 8.52858C4.42076 8.63645 4.24592 8.63645 4.13808 8.52858C3.50954 7.90005 2.49047 7.90005 1.86193 8.52858C1.75409 8.63645 1.57925 8.63645 1.47141 8.52858L1 8.05718V6.99998C1 5.89538 1.89544 4.99998 3 4.99998H3.66667V3.66665C3.66667 3.29846 3.96515 2.99998 4.33334 2.99998C4.70152 2.99998 5 3.29846 5 3.66665V4.99998H6.33334V3.66665C6.33334 3.29846 6.6318 2.99998 7 2.99998C7.3682 2.99998 7.66667 3.29846 7.66667 3.66665V4.99998H9V3.66665C9 3.29846 9.29847 2.99998 9.66667 2.99998ZM7.33334 0.333313C7.1208 0.758386 7.3148 1.03377 7.48334 1.27299C7.57914 1.40895 7.66667 1.53322 7.66667 1.66665C7.66667 2.03483 7.3682 2.33331 7 2.33331C6.6318 2.33331 6.33334 2.03483 6.33334 1.66665C6.33334 1.29846 6.66667 0.666646 7.33334 0.333313ZM4.66667 0.333313C4.45413 0.758386 4.64814 1.03377 4.81667 1.27299C4.91245 1.40895 5 1.53322 5 1.66665C5 2.03483 4.70152 2.33331 4.33334 2.33331C3.96515 2.33331 3.66667 2.03483 3.66667 1.66665C3.66667 1.29846 4 0.666646 4.66667 0.333313ZM10 0.333313C9.78747 0.758386 9.98147 1.03377 10.15 1.27299C10.2458 1.40895 10.3333 1.53322 10.3333 1.66665C10.3333 2.03483 10.0349 2.33331 9.66667 2.33331C9.29847 2.33331 9 2.03483 9 1.66665C9 1.29846 9.33334 0.666646 10 0.333313Z" fill="#0E081E"/>
</svg>
