<svg width="181" height="122" viewBox="0 0 181 122" fill="none" xmlns="http://www.w3.org/2000/svg">
<rect x="0.438042" y="32.25" width="180.338" height="88.9352" rx="6.2963" fill="white"/>
<ellipse cx="91.0006" cy="32.25" rx="31.5" ry="31.4815" fill="#EBE5F7"/>
<g clip-path="url(#clip0_91_476)">
<path d="M104.041 31.7154C105.219 31.1266 105.963 29.9228 105.963 28.6064V28.2494C105.963 26.3293 104.406 24.7731 102.485 24.7731C100.988 24.7731 99.6589 25.7306 99.1852 27.1498C98.8261 28.226 98.6429 29.2592 97.4033 29.2592H84.5977C83.3175 29.2592 83.1211 28.0658 82.8158 27.1498C82.3426 25.7306 81.0133 24.7731 79.5166 24.7731C77.5953 24.7731 76.0383 26.3293 76.0383 28.2494V28.6064C76.0383 29.9228 76.7826 31.1266 77.9609 31.7154C78.4019 31.9355 78.4019 32.5645 77.9609 32.7846C76.7826 33.3734 76.0383 34.5772 76.0383 35.8935V36.2506C76.0383 38.1707 77.5953 39.7268 79.5161 39.7268C81.0133 39.7268 82.3421 38.7693 82.8158 37.3501C83.1749 36.2739 83.3582 35.2407 84.5977 35.2407H97.4033C98.6835 35.2407 98.8799 36.4342 99.1852 37.3501C99.6589 38.7693 100.988 39.7268 102.485 39.7268C104.406 39.7268 105.963 38.1707 105.963 36.2506V35.8935C105.963 34.5767 105.218 33.3734 104.04 32.7846C103.6 32.5645 103.6 31.9355 104.041 31.7154Z" fill="#7C58D3"/>
</g>
<path d="M13.0695 98.1111C12.6193 98.1111 12.2715 97.9951 12.0259 97.7632C11.794 97.5177 11.678 97.1698 11.678 96.7196V85.0762C11.678 84.626 11.794 84.2849 12.0259 84.053C12.2715 83.8075 12.6193 83.6847 13.0695 83.6847H17.0393C19.454 83.6847 21.3161 84.3054 22.6257 85.5468C23.949 86.7882 24.6106 88.5685 24.6106 90.8877C24.6106 92.0472 24.4401 93.0772 24.0991 93.9776C23.7717 94.8643 23.2805 95.6146 22.6257 96.2285C21.9846 96.8424 21.1933 97.313 20.252 97.6404C19.3244 97.9542 18.2535 98.1111 17.0393 98.1111H13.0695ZM14.2973 95.942H16.8756C17.7214 95.942 18.4513 95.8397 19.0652 95.6351C19.6927 95.4168 20.2111 95.103 20.6204 94.6938C21.0433 94.2709 21.357 93.7457 21.5617 93.1181C21.7663 92.4769 21.8686 91.7335 21.8686 90.8877C21.8686 89.1961 21.4525 87.9342 20.6204 87.102C19.7882 86.2698 18.54 85.8538 16.8756 85.8538H14.2973V95.942ZM33.7314 98.3157C32.3399 98.3157 31.1189 98.0088 30.0685 97.3949C29.0317 96.781 28.2268 95.9215 27.6539 94.8165C27.0809 93.6979 26.7944 92.3883 26.7944 90.8877C26.7944 89.7554 26.9581 88.739 27.2855 87.8387C27.6129 86.9247 28.0768 86.1471 28.677 85.5059C29.2909 84.8511 30.0207 84.3532 30.8665 84.0121C31.726 83.6574 32.6809 83.4801 33.7314 83.4801C35.1365 83.4801 36.3574 83.787 37.3942 84.4009C38.431 85.0011 39.2359 85.8538 39.8089 86.9588C40.3818 88.0638 40.6683 89.3666 40.6683 90.8672C40.6683 91.9995 40.5046 93.0226 40.1772 93.9366C39.8498 94.8507 39.3791 95.6351 38.7653 96.2899C38.165 96.9447 37.4352 97.4494 36.5757 97.8041C35.7299 98.1452 34.7818 98.3157 33.7314 98.3157ZM33.7314 96.0648C34.6181 96.0648 35.3684 95.8602 35.9823 95.4509C36.6098 95.0416 37.0873 94.4482 37.4147 93.6706C37.7557 92.893 37.9263 91.9654 37.9263 90.8877C37.9263 89.2506 37.5579 87.9819 36.8213 87.0815C36.0982 86.1812 35.0683 85.731 33.7314 85.731C32.8583 85.731 32.108 85.9356 31.4804 86.3449C30.8529 86.7405 30.3686 87.3271 30.0276 88.1047C29.7002 88.8686 29.5365 89.7963 29.5365 90.8877C29.5365 92.5111 29.9048 93.7798 30.6415 94.6938C31.3781 95.6078 32.4081 96.0648 33.7314 96.0648ZM44.5595 98.2748C44.1638 98.2748 43.8569 98.1657 43.6386 97.9474C43.434 97.7291 43.3317 97.4153 43.3317 97.0061V84.8306C43.3317 84.4077 43.434 84.0871 43.6386 83.8689C43.8569 83.6369 44.1366 83.521 44.4776 83.521C44.7914 83.521 45.0233 83.5824 45.1734 83.7052C45.3371 83.8143 45.528 84.0053 45.7463 84.2781L53.5836 94.4482H53.0516V84.7692C53.0516 84.3736 53.1539 84.0667 53.3585 83.8484C53.5768 83.6301 53.8838 83.521 54.2794 83.521C54.675 83.521 54.9751 83.6301 55.1797 83.8484C55.3844 84.0667 55.4867 84.3736 55.4867 84.7692V97.047C55.4867 97.429 55.3912 97.7291 55.2002 97.9474C55.0092 98.1657 54.75 98.2748 54.4226 98.2748C54.1088 98.2748 53.8565 98.2134 53.6655 98.0906C53.4881 97.9678 53.2903 97.77 53.0721 97.4972L45.2552 87.3271H45.7668V97.0061C45.7668 97.4153 45.6645 97.7291 45.4598 97.9474C45.2552 98.1657 44.9551 98.2748 44.5595 98.2748ZM58.7822 98.2748C58.4548 98.2748 58.1888 98.1998 57.9841 98.0497C57.7931 97.8996 57.6772 97.7018 57.6363 97.4563C57.5953 97.1971 57.6431 96.9106 57.7795 96.5968L63.1817 84.626C63.3591 84.2304 63.5705 83.9507 63.8161 83.787C64.0753 83.6097 64.3686 83.521 64.696 83.521C65.0097 83.521 65.2894 83.6097 65.535 83.787C65.7942 83.9507 66.0124 84.2304 66.1898 84.626L71.6125 96.5968C71.7625 96.9106 71.8171 97.1971 71.7762 97.4563C71.7352 97.7155 71.6193 97.9201 71.4283 98.0702C71.2373 98.2066 70.9849 98.2748 70.6712 98.2748C70.2892 98.2748 69.9891 98.1861 69.7708 98.0088C69.5662 97.8178 69.382 97.5313 69.2183 97.1493L67.8882 94.0594L68.9932 94.7756H60.3578L61.4628 94.0594L60.1532 97.1493C59.9759 97.5449 59.7917 97.8314 59.6007 98.0088C59.4097 98.1861 59.1369 98.2748 58.7822 98.2748ZM64.6551 86.529L61.7902 93.3432L61.2582 92.6884H68.0928L67.5813 93.3432L64.696 86.529H64.6551ZM65.7396 82.3341C65.5759 82.5115 65.3917 82.607 65.1871 82.6206C64.9961 82.6206 64.8188 82.5661 64.6551 82.4569C64.505 82.3341 64.4027 82.1841 64.3481 82.0067C64.3072 81.8294 64.3481 81.6452 64.4709 81.4542L66.067 79.101C66.2171 78.8691 66.3944 78.7327 66.599 78.6917C66.8173 78.6372 67.0288 78.6508 67.2334 78.7327C67.438 78.8009 67.6017 78.9168 67.7245 79.0805C67.8609 79.2306 67.936 79.4079 67.9496 79.6126C67.9632 79.8036 67.8814 79.9945 67.704 80.1855L65.7396 82.3341ZM80.3068 98.2543C80.0067 98.2543 79.7748 98.1725 79.6111 98.0088C79.4474 97.8314 79.3655 97.5859 79.3655 97.2721V84.5237C79.3655 84.1963 79.4474 83.9507 79.6111 83.787C79.7748 83.6233 80.0067 83.5415 80.3068 83.5415C80.6206 83.5415 80.8593 83.6233 81.023 83.787C81.1867 83.9507 81.2686 84.1963 81.2686 84.5237V97.2721C81.2686 97.5859 81.1867 97.8314 81.023 98.0088C80.873 98.1725 80.6342 98.2543 80.3068 98.2543ZM85.601 98.2543C85.3281 98.2543 85.1099 98.1725 84.9462 98.0088C84.7961 97.8451 84.7211 97.62 84.7211 97.3335V84.5032C84.7211 84.1894 84.7961 83.9507 84.9462 83.787C85.0962 83.6233 85.294 83.5415 85.5396 83.5415C85.7715 83.5415 85.9488 83.5824 86.0716 83.6642C86.1944 83.7461 86.3308 83.8893 86.4809 84.094L95.1572 95.5941H94.6456V84.4623C94.6456 84.1622 94.7206 83.9371 94.8707 83.787C95.0344 83.6233 95.2595 83.5415 95.546 83.5415C95.8325 83.5415 96.0507 83.6233 96.2008 83.787C96.3509 83.9371 96.4259 84.1622 96.4259 84.4623V97.3335C96.4259 97.62 96.3509 97.8451 96.2008 98.0088C96.0644 98.1725 95.8802 98.2543 95.6483 98.2543C95.43 98.2543 95.2459 98.2066 95.0958 98.1111C94.9594 98.0292 94.8161 97.886 94.6661 97.6814L86.0102 86.1812H86.4809V97.3335C86.4809 97.62 86.4059 97.8451 86.2558 98.0088C86.1057 98.1725 85.8875 98.2543 85.601 98.2543ZM104.615 98.2953C103.974 98.2953 103.353 98.2407 102.753 98.1315C102.153 98.0361 101.587 97.886 101.055 97.6814C100.523 97.4767 100.045 97.2244 99.6224 96.9242C99.4451 96.8015 99.3155 96.6514 99.2336 96.474C99.1654 96.2967 99.145 96.1262 99.1722 95.9625C99.2132 95.7851 99.2882 95.6351 99.3973 95.5123C99.5201 95.3895 99.6633 95.3145 99.827 95.2872C99.9908 95.2599 100.168 95.3145 100.359 95.4509C100.987 95.8738 101.641 96.1807 102.324 96.3717C103.019 96.5627 103.783 96.6582 104.615 96.6582C105.816 96.6582 106.696 96.4399 107.255 96.0034C107.828 95.5669 108.115 94.9939 108.115 94.2845C108.115 93.6979 107.91 93.2409 107.501 92.9135C107.091 92.5724 106.402 92.3064 105.434 92.1154L103.265 91.6653C101.982 91.3924 101.021 90.9422 100.38 90.3147C99.752 89.6872 99.4383 88.8482 99.4383 87.7978C99.4383 87.1566 99.5679 86.5768 99.827 86.0584C100.086 85.5264 100.455 85.0694 100.932 84.6874C101.41 84.3054 101.969 84.0121 102.61 83.8075C103.265 83.6028 103.988 83.5005 104.779 83.5005C105.625 83.5005 106.416 83.6165 107.153 83.8484C107.903 84.0803 108.578 84.4214 109.179 84.8715C109.342 84.9943 109.451 85.1444 109.506 85.3217C109.561 85.4854 109.567 85.6491 109.526 85.8128C109.499 85.9765 109.424 86.113 109.301 86.2221C109.192 86.3312 109.049 86.3926 108.872 86.4063C108.708 86.4199 108.524 86.3585 108.319 86.2221C107.773 85.8401 107.214 85.5673 106.641 85.4036C106.068 85.2262 105.441 85.1376 104.759 85.1376C104.063 85.1376 103.456 85.2467 102.937 85.465C102.433 85.6832 102.037 85.9902 101.751 86.3858C101.478 86.7678 101.341 87.218 101.341 87.7364C101.341 88.3639 101.532 88.855 101.914 89.2097C102.296 89.5644 102.937 89.8372 103.838 90.0282L105.986 90.4579C107.351 90.7444 108.36 91.1878 109.015 91.788C109.683 92.3746 110.018 93.1659 110.018 94.1617C110.018 94.7893 109.888 95.3554 109.629 95.8602C109.383 96.3649 109.029 96.8015 108.565 97.1698C108.101 97.5245 107.535 97.8041 106.866 98.0088C106.198 98.1998 105.448 98.2953 104.615 98.2953ZM118.288 98.2953C117.333 98.2953 116.487 98.1725 115.751 97.9269C115.028 97.6677 114.421 97.2926 113.929 96.8015C113.438 96.2967 113.063 95.676 112.804 94.9393C112.558 94.189 112.436 93.3228 112.436 92.3405V84.5032C112.436 84.1758 112.517 83.9371 112.681 83.787C112.845 83.6233 113.077 83.5415 113.377 83.5415C113.691 83.5415 113.929 83.6233 114.093 83.787C114.257 83.9371 114.339 84.1758 114.339 84.5032V92.2791C114.339 93.7388 114.673 94.8302 115.341 95.5532C116.01 96.2626 116.992 96.6173 118.288 96.6173C119.584 96.6173 120.566 96.2626 121.235 95.5532C121.903 94.8302 122.237 93.7388 122.237 92.2791V84.5032C122.237 84.1758 122.319 83.9371 122.483 83.787C122.647 83.6233 122.879 83.5415 123.179 83.5415C123.479 83.5415 123.711 83.6233 123.874 83.787C124.038 83.9371 124.12 84.1758 124.12 84.5032V92.3405C124.12 93.6365 123.895 94.7279 123.445 95.6146C123.008 96.5013 122.353 97.1698 121.48 97.62C120.621 98.0702 119.557 98.2953 118.288 98.2953ZM128.406 98.2543C128.133 98.2543 127.922 98.1725 127.771 98.0088C127.621 97.8451 127.546 97.6268 127.546 97.354V84.4418C127.546 84.1553 127.621 83.9371 127.771 83.787C127.935 83.6233 128.153 83.5415 128.426 83.5415C128.672 83.5415 128.863 83.5892 128.999 83.6847C129.149 83.7802 129.286 83.9439 129.409 84.1758L134.893 94.4687H134.258L139.742 84.1758C139.865 83.9439 139.995 83.7802 140.131 83.6847C140.268 83.5892 140.459 83.5415 140.704 83.5415C140.977 83.5415 141.188 83.6233 141.338 83.787C141.488 83.9371 141.564 84.1553 141.564 84.4418V97.354C141.564 97.6268 141.488 97.8451 141.338 98.0088C141.202 98.1725 140.991 98.2543 140.704 98.2543C140.418 98.2543 140.199 98.1725 140.049 98.0088C139.913 97.8451 139.845 97.6268 139.845 97.354V86.3244H140.295L135.384 95.5123C135.275 95.6896 135.159 95.8261 135.036 95.9215C134.927 96.0034 134.77 96.0443 134.565 96.0443C134.374 96.0443 134.21 95.9966 134.074 95.9011C133.951 95.8056 133.842 95.676 133.747 95.5123L128.774 86.304H129.265V97.354C129.265 97.6268 129.19 97.8451 129.04 98.0088C128.904 98.1725 128.692 98.2543 128.406 98.2543ZM151.23 98.2953C149.866 98.2953 148.686 97.9951 147.69 97.3949C146.694 96.781 145.917 95.9215 145.357 94.8165C144.812 93.6979 144.539 92.3883 144.539 90.8877C144.539 89.7554 144.696 88.739 145.009 87.8387C145.323 86.9247 145.767 86.1471 146.34 85.5059C146.926 84.8511 147.629 84.3532 148.447 84.0121C149.279 83.6711 150.207 83.5005 151.23 83.5005C152.594 83.5005 153.774 83.8007 154.77 84.4009C155.766 85.0011 156.537 85.8538 157.083 86.9588C157.628 88.0638 157.901 89.3666 157.901 90.8672C157.901 91.9995 157.744 93.0226 157.43 93.9366C157.117 94.8507 156.667 95.6351 156.08 96.2899C155.507 96.9447 154.811 97.4426 153.993 97.7837C153.174 98.1247 152.253 98.2953 151.23 98.2953ZM151.23 96.6173C152.212 96.6173 153.051 96.3922 153.747 95.942C154.443 95.4918 154.975 94.837 155.343 93.9776C155.725 93.1181 155.916 92.0882 155.916 90.8877C155.916 89.0733 155.507 87.6682 154.688 86.6723C153.884 85.6764 152.731 85.1785 151.23 85.1785C150.248 85.1785 149.402 85.4036 148.693 85.8538C147.997 86.2903 147.465 86.9383 147.097 87.7978C146.728 88.6436 146.544 89.6735 146.544 90.8877C146.544 92.6884 146.953 94.0935 147.772 95.103C148.59 96.1125 149.743 96.6173 151.23 96.6173ZM165.585 98.2953C164.943 98.2953 164.323 98.2407 163.722 98.1315C163.122 98.0361 162.556 97.886 162.024 97.6814C161.492 97.4767 161.015 97.2244 160.592 96.9242C160.414 96.8015 160.285 96.6514 160.203 96.474C160.135 96.2967 160.114 96.1262 160.141 95.9625C160.182 95.7851 160.257 95.6351 160.367 95.5123C160.489 95.3895 160.633 95.3145 160.796 95.2872C160.96 95.2599 161.137 95.3145 161.328 95.4509C161.956 95.8738 162.611 96.1807 163.293 96.3717C163.989 96.5627 164.752 96.6582 165.585 96.6582C166.785 96.6582 167.665 96.4399 168.224 96.0034C168.797 95.5669 169.084 94.9939 169.084 94.2845C169.084 93.6979 168.879 93.2409 168.47 92.9135C168.061 92.5724 167.372 92.3064 166.403 92.1154L164.234 91.6653C162.952 91.3924 161.99 90.9422 161.349 90.3147C160.721 89.6872 160.407 88.8482 160.407 87.7978C160.407 87.1566 160.537 86.5768 160.796 86.0584C161.055 85.5264 161.424 85.0694 161.901 84.6874C162.379 84.3054 162.938 84.0121 163.579 83.8075C164.234 83.6028 164.957 83.5005 165.748 83.5005C166.594 83.5005 167.385 83.6165 168.122 83.8484C168.872 84.0803 169.548 84.4214 170.148 84.8715C170.312 84.9943 170.421 85.1444 170.475 85.3217C170.53 85.4854 170.537 85.6491 170.496 85.8128C170.468 85.9765 170.393 86.113 170.271 86.2221C170.161 86.3312 170.018 86.3926 169.841 86.4063C169.677 86.4199 169.493 86.3585 169.288 86.2221C168.743 85.8401 168.183 85.5673 167.61 85.4036C167.037 85.2262 166.41 85.1376 165.728 85.1376C165.032 85.1376 164.425 85.2467 163.907 85.465C163.402 85.6832 163.006 85.9902 162.72 86.3858C162.447 86.7678 162.311 87.218 162.311 87.7364C162.311 88.3639 162.502 88.855 162.884 89.2097C163.265 89.5644 163.907 89.8372 164.807 90.0282L166.956 90.4579C168.32 90.7444 169.329 91.1878 169.984 91.788C170.653 92.3746 170.987 93.1659 170.987 94.1617C170.987 94.7893 170.857 95.3554 170.598 95.8602C170.352 96.3649 169.998 96.8015 169.534 97.1698C169.07 97.5245 168.504 97.8041 167.836 98.0088C167.167 98.1998 166.417 98.2953 165.585 98.2953Z" fill="black"/>
<defs>
<clipPath id="clip0_91_476">
<rect width="29.925" height="29.9074" fill="white" transform="translate(76.0383 17.2963)"/>
</clipPath>
</defs>
</svg>
