<svg width="182" height="122" viewBox="0 0 182 122" fill="none" xmlns="http://www.w3.org/2000/svg">
<rect x="0.899597" y="32.25" width="180.338" height="88.9352" rx="6.2963" fill="white"/>
<ellipse cx="91.4625" cy="32.25" rx="31.5" ry="31.4815" fill="#EBE5F7"/>
<path d="M101.7 45.892L108.225 39.3706C108.417 39.1788 108.525 38.9186 108.525 38.6473V29.6921C108.525 28.2795 107.379 27.1343 105.965 27.1343C104.552 27.1343 103.406 28.2795 103.406 29.6921V37.3658" stroke="#7C58D3" stroke-width="3.83681" stroke-linecap="round" stroke-linejoin="round"/>
<path d="M101.7 39.071L103.164 37.6078C103.319 37.4528 103.406 37.2427 103.406 37.0237C103.406 36.7108 103.229 36.4248 102.949 36.2848L102.194 35.9073C100.88 35.2508 99.2931 35.5081 98.2545 36.5461L96.7275 38.0721C96.0875 38.7117 95.728 39.5792 95.728 40.4837V45.892" stroke="#7C58D3" stroke-width="3.83681" stroke-linecap="round" stroke-linejoin="round"/>
<path d="M81.2249 45.892L74.6998 39.3706C74.5078 39.1788 74.3999 38.9186 74.3999 38.6473V29.6921C74.3999 28.2795 75.5458 27.1343 76.9593 27.1343C78.3728 27.1343 79.5187 28.2795 79.5187 29.6921V37.3658" stroke="#7C58D3" stroke-width="3.83681" stroke-linecap="round" stroke-linejoin="round"/>
<path d="M81.2247 39.071L79.7605 37.6078C79.6055 37.4528 79.5184 37.2427 79.5184 37.0237C79.5184 36.7108 79.6953 36.4248 79.9753 36.2848L80.731 35.9073C82.0448 35.2508 83.6315 35.5081 84.6701 36.5461L86.1971 38.0721C86.837 38.7117 87.1966 39.5792 87.1966 40.4837V45.892" stroke="#7C58D3" stroke-width="3.83681" stroke-linecap="round" stroke-linejoin="round"/>
<path d="M94.3063 32.25H88.6186V28.2711H84.6375V22.5869H88.6186V18.608H94.3063V22.5869H98.2875V28.2711H94.3063V32.25Z" stroke="#7C58D3" stroke-width="3.83681" stroke-linecap="round" stroke-linejoin="round"/>
<path d="M38.5898 87.0926C38.1396 87.0926 37.7917 86.9766 37.5462 86.7447C37.3143 86.4992 37.1983 86.1513 37.1983 85.7011V74.0577C37.1983 73.6075 37.3143 73.2664 37.5462 73.0345C37.7917 72.789 38.1396 72.6662 38.5898 72.6662H42.5596C44.9742 72.6662 46.8364 73.2869 48.146 74.5283C49.4693 75.7698 50.1309 77.55 50.1309 79.8692C50.1309 81.0287 49.9604 82.0587 49.6193 82.9591C49.2919 83.8458 48.8008 84.5961 48.146 85.21C47.5048 85.8239 46.7136 86.2945 45.7723 86.6219C44.8446 86.9357 43.7737 87.0926 42.5596 87.0926H38.5898ZM39.8176 84.9235H42.3959C43.2417 84.9235 43.9715 84.8212 44.5854 84.6166C45.213 84.3983 45.7314 84.0845 46.1406 83.6753C46.5635 83.2524 46.8773 82.7272 47.0819 82.0996C47.2865 81.4585 47.3889 80.715 47.3889 79.8692C47.3889 78.1776 46.9728 76.9157 46.1406 76.0835C45.3084 75.2514 44.0602 74.8353 42.3959 74.8353H39.8176V84.9235ZM59.2516 87.2972C57.8601 87.2972 56.6392 86.9903 55.5887 86.3764C54.552 85.7625 53.7471 84.9031 53.1741 83.7981C52.6012 82.6794 52.3147 81.3698 52.3147 79.8692C52.3147 78.7369 52.4784 77.7206 52.8058 76.8202C53.1332 75.9062 53.597 75.1286 54.1973 74.4874C54.8112 73.8326 55.541 73.3347 56.3868 72.9936C57.2462 72.6389 58.2012 72.4616 59.2516 72.4616C60.6567 72.4616 61.8777 72.7685 62.9145 73.3824C63.9513 73.9827 64.7562 74.8353 65.3291 75.9403C65.9021 77.0453 66.1886 78.3481 66.1886 79.8487C66.1886 80.981 66.0249 82.0041 65.6974 82.9181C65.37 83.8322 64.8994 84.6166 64.2855 85.2714C63.6853 85.9262 62.9554 86.431 62.096 86.7856C61.2502 87.1267 60.302 87.2972 59.2516 87.2972ZM59.2516 85.0463C60.1383 85.0463 60.8887 84.8417 61.5025 84.4324C62.1301 84.0231 62.6075 83.4297 62.9349 82.6521C63.276 81.8745 63.4465 80.9469 63.4465 79.8692C63.4465 78.2321 63.0782 76.9634 62.3415 76.0631C61.6185 75.1627 60.5885 74.7125 59.2516 74.7125C58.3785 74.7125 57.6282 74.9171 57.0007 75.3264C56.3732 75.722 55.8889 76.3086 55.5478 77.0862C55.2204 77.8502 55.0567 78.7778 55.0567 79.8692C55.0567 81.4926 55.425 82.7613 56.1617 83.6753C56.8984 84.5893 57.9283 85.0463 59.2516 85.0463ZM70.0797 87.2563C69.6841 87.2563 69.3772 87.1472 69.1589 86.9289C68.9543 86.7106 68.8519 86.3968 68.8519 85.9876V73.8121C68.8519 73.3892 68.9543 73.0686 69.1589 72.8504C69.3772 72.6185 69.6568 72.5025 69.9979 72.5025C70.3116 72.5025 70.5435 72.5639 70.6936 72.6867C70.8573 72.7958 71.0483 72.9868 71.2666 73.2596L79.1039 83.4297H78.5718V73.7507C78.5718 73.3551 78.6742 73.0482 78.8788 72.8299C79.0971 72.6116 79.404 72.5025 79.7996 72.5025C80.1952 72.5025 80.4954 72.6116 80.7 72.8299C80.9046 73.0482 81.0069 73.3551 81.0069 73.7507V86.0285C81.0069 86.4105 80.9114 86.7106 80.7205 86.9289C80.5295 87.1472 80.2703 87.2563 79.9429 87.2563C79.6291 87.2563 79.3767 87.1949 79.1857 87.0721C79.0084 86.9493 78.8106 86.7515 78.5923 86.4787L70.7755 76.3086H71.287V85.9876C71.287 86.3968 71.1847 86.7106 70.9801 86.9289C70.7755 87.1472 70.4753 87.2563 70.0797 87.2563ZM84.3024 87.2563C83.975 87.2563 83.709 87.1813 83.5044 87.0312C83.3134 86.8811 83.1974 86.6833 83.1565 86.4378C83.1156 86.1786 83.1633 85.8921 83.2998 85.5783L88.702 73.6075C88.8793 73.2119 89.0908 72.9322 89.3363 72.7685C89.5955 72.5912 89.8888 72.5025 90.2162 72.5025C90.53 72.5025 90.8097 72.5912 91.0552 72.7685C91.3144 72.9322 91.5327 73.2119 91.71 73.6075L97.1327 85.5783C97.2828 85.8921 97.3373 86.1786 97.2964 86.4378C97.2555 86.697 97.1395 86.9016 96.9486 87.0517C96.7576 87.1881 96.5052 87.2563 96.1914 87.2563C95.8094 87.2563 95.5093 87.1676 95.2911 86.9903C95.0864 86.7993 94.9023 86.5128 94.7386 86.1308L93.4085 83.0409L94.5135 83.7571H85.8781L86.9831 83.0409L85.6735 86.1308C85.4961 86.5264 85.3119 86.8129 85.121 86.9903C84.93 87.1676 84.6571 87.2563 84.3024 87.2563ZM90.1753 75.5106L87.3105 82.3247L86.7785 81.6699H93.6131L93.1015 82.3247L90.2162 75.5106H90.1753ZM91.2598 71.3156C91.0961 71.493 90.912 71.5885 90.7073 71.6021C90.5164 71.6021 90.339 71.5476 90.1753 71.4384C90.0252 71.3156 89.9229 71.1656 89.8684 70.9882C89.8274 70.8109 89.8684 70.6267 89.9911 70.4357L91.5873 68.0825C91.7373 67.8506 91.9147 67.7142 92.1193 67.6732C92.3376 67.6187 92.549 67.6323 92.7536 67.7142C92.9583 67.7824 93.122 67.8983 93.2448 68.062C93.3812 68.2121 93.4562 68.3894 93.4698 68.5941C93.4835 68.7851 93.4016 68.976 93.2243 69.167L91.2598 71.3156ZM110.615 87.2768C109.66 87.2768 108.821 87.154 108.098 86.9084C107.389 86.6492 106.789 86.2741 106.298 85.783C105.807 85.2782 105.438 84.6575 105.193 83.9208C104.947 83.1842 104.824 82.3384 104.824 81.3834V73.3824C104.824 73.0959 104.893 72.8845 105.029 72.7481C105.179 72.598 105.391 72.523 105.663 72.523C105.936 72.523 106.141 72.598 106.277 72.7481C106.427 72.8845 106.502 73.0959 106.502 73.3824V81.3016C106.502 82.8022 106.85 83.9277 107.546 84.678C108.242 85.4146 109.265 85.783 110.615 85.783C111.966 85.783 112.982 85.4146 113.664 84.678C114.346 83.9277 114.688 82.8022 114.688 81.3016V73.3824C114.688 73.0959 114.763 72.8845 114.913 72.7481C115.063 72.598 115.274 72.523 115.547 72.523C115.806 72.523 116.004 72.598 116.14 72.7481C116.29 72.8845 116.365 73.0959 116.365 73.3824V81.3834C116.365 82.6521 116.147 83.7298 115.711 84.6166C115.288 85.5033 114.647 86.1718 113.787 86.6219C112.928 87.0585 111.87 87.2768 110.615 87.2768ZM120.612 87.2358C120.353 87.2358 120.155 87.1676 120.019 87.0312C119.883 86.8811 119.814 86.6697 119.814 86.3968V73.3824C119.814 73.1096 119.883 72.8981 120.019 72.7481C120.155 72.598 120.333 72.523 120.551 72.523C120.769 72.523 120.926 72.5639 121.022 72.6457C121.131 72.7139 121.254 72.8435 121.39 73.0345L130.312 84.9235H129.821V73.3415C129.821 73.0823 129.889 72.8845 130.025 72.7481C130.162 72.598 130.36 72.523 130.619 72.523C130.864 72.523 131.048 72.598 131.171 72.7481C131.308 72.8845 131.376 73.0823 131.376 73.3415V86.4173C131.376 86.6765 131.314 86.8811 131.192 87.0312C131.083 87.1676 130.919 87.2358 130.701 87.2358C130.496 87.2358 130.332 87.1949 130.209 87.1131C130.087 87.0312 129.957 86.9016 129.821 86.7243L120.919 74.8353H121.39V86.3968C121.39 86.6697 121.322 86.8811 121.185 87.0312C121.049 87.1676 120.858 87.2358 120.612 87.2358ZM134.655 87.2358C134.436 87.2358 134.259 87.1881 134.123 87.0926C134 86.9835 133.925 86.847 133.898 86.6833C133.884 86.506 133.925 86.3082 134.02 86.0899L139.648 73.2801C139.771 73.0072 139.914 72.8163 140.077 72.7071C140.255 72.5843 140.446 72.523 140.65 72.523C140.855 72.523 141.039 72.5843 141.203 72.7071C141.38 72.8163 141.523 73.0072 141.633 73.2801L147.28 86.0899C147.39 86.3082 147.43 86.506 147.403 86.6833C147.39 86.8607 147.321 86.9971 147.199 87.0926C147.076 87.1881 146.905 87.2358 146.687 87.2358C146.441 87.2358 146.244 87.1744 146.094 87.0517C145.943 86.9152 145.821 86.7243 145.725 86.4787L144.211 82.9795L145.029 83.4093H136.23L137.069 82.9795L135.576 86.4787C135.453 86.7379 135.323 86.9289 135.187 87.0517C135.05 87.1744 134.873 87.2358 134.655 87.2358ZM140.63 74.6306L137.335 82.3861L136.844 81.9973H144.416L143.965 82.3861L140.671 74.6306H140.63ZM34.4818 115.277C33.063 115.277 31.8489 114.977 30.8393 114.376C29.8298 113.776 29.0522 112.924 28.5066 111.819C27.9745 110.714 27.7085 109.397 27.7085 107.869C27.7085 106.723 27.8586 105.7 28.1587 104.8C28.4725 103.886 28.9158 103.115 29.4888 102.487C30.0754 101.846 30.7916 101.355 31.6374 101.014C32.4832 100.659 33.4313 100.482 34.4818 100.482C35.3276 100.482 36.1324 100.605 36.8964 100.85C37.6603 101.082 38.322 101.43 38.8813 101.894C39.0586 102.03 39.1746 102.187 39.2292 102.365C39.2974 102.528 39.3042 102.692 39.2496 102.856C39.2087 103.006 39.1268 103.135 39.0041 103.245C38.8949 103.34 38.7585 103.388 38.5948 103.388C38.4311 103.388 38.2469 103.32 38.0423 103.183C37.5512 102.788 37.0123 102.494 36.4257 102.303C35.8391 102.112 35.2048 102.017 34.5227 102.017C33.445 102.017 32.531 102.249 31.7806 102.712C31.0303 103.163 30.4642 103.824 30.0822 104.697C29.7002 105.57 29.5093 106.628 29.5093 107.869C29.5093 109.111 29.7002 110.175 30.0822 111.061C30.4642 111.934 31.0303 112.603 31.7806 113.067C32.531 113.517 33.445 113.742 34.5227 113.742C35.1911 113.742 35.8255 113.647 36.4257 113.456C37.026 113.251 37.5785 112.951 38.0832 112.555C38.2879 112.419 38.472 112.357 38.6357 112.371C38.7994 112.371 38.9359 112.419 39.045 112.514C39.1541 112.61 39.2292 112.733 39.2701 112.883C39.3247 113.033 39.3247 113.19 39.2701 113.353C39.2292 113.517 39.1268 113.66 38.9631 113.783C38.3902 114.274 37.7149 114.649 36.9373 114.908C36.1734 115.154 35.3548 115.277 34.4818 115.277ZM41.3424 115.236C41.1242 115.236 40.9468 115.188 40.8104 115.093C40.6876 114.983 40.6126 114.847 40.5853 114.683C40.5717 114.506 40.6126 114.308 40.7081 114.09L46.3354 101.28C46.4582 101.007 46.6014 100.816 46.7651 100.707C46.9425 100.584 47.1335 100.523 47.3381 100.523C47.5427 100.523 47.7269 100.584 47.8906 100.707C48.0679 100.816 48.2112 101.007 48.3203 101.28L53.9681 114.09C54.0772 114.308 54.1182 114.506 54.0909 114.683C54.0772 114.861 54.009 114.997 53.8862 115.093C53.7635 115.188 53.5929 115.236 53.3747 115.236C53.1291 115.236 52.9313 115.174 52.7812 115.052C52.6312 114.915 52.5084 114.724 52.4129 114.479L50.8986 110.98L51.7172 111.409H42.9181L43.7571 110.98L42.2633 114.479C42.1405 114.738 42.0109 114.929 41.8745 115.052C41.7381 115.174 41.5607 115.236 41.3424 115.236ZM47.3176 102.631L44.0231 110.386L43.532 109.997H51.1033L50.6531 110.386L47.3586 102.631H47.3176ZM61.1026 115.277C60.4615 115.277 59.8339 115.222 59.22 115.113C58.6062 115.004 58.0332 114.847 57.5012 114.642C56.9828 114.438 56.5121 114.179 56.0892 113.865C55.9255 113.742 55.8095 113.606 55.7413 113.456C55.6868 113.292 55.6731 113.135 55.7004 112.985C55.7413 112.821 55.8095 112.685 55.905 112.576C56.0142 112.467 56.1438 112.405 56.2938 112.391C56.4439 112.378 56.6076 112.426 56.7849 112.535C57.3988 112.971 58.0537 113.292 58.7494 113.496C59.4451 113.687 60.2295 113.783 61.1026 113.783C62.3304 113.783 63.2376 113.558 63.8242 113.108C64.4245 112.644 64.7246 112.037 64.7246 111.286C64.7246 110.673 64.5063 110.195 64.0698 109.854C63.6469 109.499 62.9307 109.22 61.9212 109.015L59.793 108.585C58.5107 108.313 57.5489 107.869 56.9077 107.255C56.2802 106.628 55.9664 105.796 55.9664 104.759C55.9664 104.118 56.096 103.538 56.3552 103.019C56.6144 102.487 56.9759 102.037 57.4398 101.669C57.9036 101.287 58.4561 100.994 59.0973 100.789C59.7384 100.584 60.4478 100.482 61.2254 100.482C62.0849 100.482 62.8829 100.605 63.6196 100.85C64.3699 101.082 65.0452 101.437 65.6454 101.914C65.7955 102.037 65.8978 102.18 65.9524 102.344C66.0069 102.494 66.0137 102.644 65.9728 102.794C65.9319 102.931 65.8569 103.047 65.7477 103.142C65.6522 103.238 65.5226 103.292 65.3589 103.306C65.2089 103.32 65.0383 103.265 64.8474 103.142C64.3017 102.733 63.7355 102.44 63.1489 102.262C62.5623 102.071 61.9143 101.976 61.2049 101.976C60.4819 101.976 59.8544 102.085 59.3224 102.303C58.804 102.522 58.3947 102.842 58.0946 103.265C57.8081 103.674 57.6649 104.152 57.6649 104.697C57.6649 105.352 57.8627 105.871 58.2583 106.253C58.6675 106.635 59.3292 106.914 60.2432 107.092L62.3713 107.542C63.7492 107.828 64.7655 108.265 65.4203 108.851C66.0888 109.424 66.423 110.209 66.423 111.205C66.423 111.805 66.3002 112.357 66.0547 112.862C65.8091 113.367 65.4544 113.803 64.9906 114.172C64.5268 114.526 63.9674 114.799 63.3126 114.99C62.6578 115.181 61.9212 115.277 61.1026 115.277ZM73.1059 115.236C72.8467 115.236 72.6421 115.161 72.492 115.011C72.342 114.847 72.2669 114.629 72.2669 114.356V102.119H67.6628C67.4172 102.119 67.2262 102.051 67.0898 101.914C66.9534 101.778 66.8852 101.601 66.8852 101.382C66.8852 101.15 66.9534 100.973 67.0898 100.85C67.2262 100.728 67.4172 100.666 67.6628 100.666H78.5695C78.8151 100.666 79.0061 100.728 79.1425 100.85C79.2789 100.973 79.3471 101.15 79.3471 101.382C79.3471 101.614 79.2789 101.798 79.1425 101.935C79.0061 102.058 78.8151 102.119 78.5695 102.119H73.9654V114.356C73.9654 114.629 73.8903 114.847 73.7403 115.011C73.6039 115.161 73.3924 115.236 73.1059 115.236ZM81.8756 115.236C81.6027 115.236 81.3913 115.161 81.2412 115.011C81.1048 114.847 81.0366 114.629 81.0366 114.356V101.526C81.0366 101.239 81.1116 101.028 81.2617 100.891C81.4117 100.741 81.6232 100.666 81.896 100.666H86.7458C88.2873 100.666 89.4742 101.028 90.3063 101.751C91.1385 102.474 91.5546 103.504 91.5546 104.841C91.5546 105.686 91.3636 106.423 90.9816 107.051C90.6133 107.665 90.0676 108.135 89.3446 108.463C88.6215 108.776 87.7553 108.933 86.7458 108.933L86.9504 108.667H87.3597C87.8917 108.667 88.3555 108.804 88.7511 109.076C89.1467 109.349 89.5083 109.786 89.8357 110.386L91.8001 114.049C91.9093 114.24 91.957 114.431 91.9434 114.622C91.9434 114.799 91.882 114.949 91.7592 115.072C91.6364 115.181 91.4591 115.236 91.2272 115.236C90.9952 115.236 90.8042 115.181 90.6542 115.072C90.5041 114.963 90.3745 114.806 90.2654 114.601L88.0349 110.468C87.7212 109.881 87.3597 109.493 86.9504 109.302C86.5411 109.097 86.0023 108.995 85.3338 108.995H82.7146V114.356C82.7146 114.629 82.6463 114.847 82.5099 115.011C82.3735 115.161 82.1621 115.236 81.8756 115.236ZM82.7146 107.665H86.5002C87.6188 107.665 88.4647 107.433 89.0376 106.969C89.6106 106.491 89.8971 105.782 89.8971 104.841C89.8971 103.927 89.6106 103.238 89.0376 102.774C88.4647 102.296 87.6188 102.058 86.5002 102.058H82.7146V107.665ZM94.1984 115.236C93.9802 115.236 93.8028 115.188 93.6664 115.093C93.5436 114.983 93.4686 114.847 93.4413 114.683C93.4277 114.506 93.4686 114.308 93.5641 114.09L99.1914 101.28C99.3142 101.007 99.4574 100.816 99.6211 100.707C99.7985 100.584 99.9895 100.523 100.194 100.523C100.399 100.523 100.583 100.584 100.747 100.707C100.924 100.816 101.067 101.007 101.176 101.28L106.824 114.09C106.933 114.308 106.974 114.506 106.947 114.683C106.933 114.861 106.865 114.997 106.742 115.093C106.619 115.188 106.449 115.236 106.231 115.236C105.985 115.236 105.787 115.174 105.637 115.052C105.487 114.915 105.364 114.724 105.269 114.479L103.755 110.98L104.573 111.409H95.7741L96.6131 110.98L95.1193 114.479C94.9965 114.738 94.8669 114.929 94.7305 115.052C94.5941 115.174 94.4167 115.236 94.1984 115.236ZM100.174 102.631L96.8791 110.386L96.388 109.997H103.959L103.509 110.386L100.215 102.631H100.174ZM115.414 115.277C113.996 115.277 112.781 114.977 111.772 114.376C110.762 113.776 109.985 112.924 109.439 111.819C108.907 110.714 108.641 109.397 108.641 107.869C108.641 106.723 108.791 105.7 109.091 104.8C109.405 103.886 109.848 103.115 110.421 102.487C111.008 101.846 111.724 101.355 112.57 101.014C113.416 100.659 114.364 100.482 115.414 100.482C116.26 100.482 117.065 100.605 117.829 100.85C118.593 101.082 119.255 101.43 119.814 101.894C119.991 102.03 120.107 102.187 120.162 102.365C120.23 102.528 120.237 102.692 120.182 102.856C120.141 103.006 120.059 103.135 119.937 103.245C119.828 103.34 119.691 103.388 119.527 103.388C119.364 103.388 119.18 103.32 118.975 103.183C118.484 102.788 117.945 102.494 117.358 102.303C116.772 102.112 116.137 102.017 115.455 102.017C114.378 102.017 113.464 102.249 112.713 102.712C111.963 103.163 111.397 103.824 111.015 104.697C110.633 105.57 110.442 106.628 110.442 107.869C110.442 109.111 110.633 110.175 111.015 111.061C111.397 111.934 111.963 112.603 112.713 113.067C113.464 113.517 114.378 113.742 115.455 113.742C116.124 113.742 116.758 113.647 117.358 113.456C117.959 113.251 118.511 112.951 119.016 112.555C119.22 112.419 119.405 112.357 119.568 112.371C119.732 112.371 119.868 112.419 119.978 112.514C120.087 112.61 120.162 112.733 120.203 112.883C120.257 113.033 120.257 113.19 120.203 113.353C120.162 113.517 120.059 113.66 119.896 113.783C119.323 114.274 118.648 114.649 117.87 114.908C117.106 115.154 116.287 115.277 115.414 115.277ZM123.781 115.236C123.508 115.236 123.296 115.161 123.146 115.011C123.01 114.847 122.942 114.629 122.942 114.356V101.403C122.942 101.116 123.01 100.898 123.146 100.748C123.296 100.598 123.508 100.523 123.781 100.523C124.054 100.523 124.258 100.598 124.395 100.748C124.545 100.898 124.62 101.116 124.62 101.403V114.356C124.62 114.629 124.551 114.847 124.415 115.011C124.279 115.161 124.067 115.236 123.781 115.236ZM134.254 115.277C132.917 115.277 131.751 114.977 130.755 114.376C129.773 113.762 129.009 112.903 128.463 111.798C127.931 110.693 127.665 109.383 127.665 107.869C127.665 106.723 127.815 105.7 128.115 104.8C128.429 103.886 128.873 103.115 129.446 102.487C130.019 101.846 130.707 101.355 131.512 101.014C132.331 100.659 133.245 100.482 134.254 100.482C135.619 100.482 136.792 100.782 137.774 101.382C138.77 101.983 139.534 102.835 140.066 103.94C140.612 105.032 140.884 106.334 140.884 107.849C140.884 108.995 140.727 110.025 140.414 110.939C140.1 111.853 139.657 112.63 139.084 113.271C138.511 113.913 137.815 114.41 136.996 114.765C136.192 115.106 135.278 115.277 134.254 115.277ZM134.254 113.783C135.291 113.783 136.164 113.551 136.874 113.087C137.597 112.623 138.149 111.948 138.531 111.061C138.913 110.175 139.104 109.111 139.104 107.869C139.104 106 138.681 104.554 137.835 103.531C137.003 102.494 135.81 101.976 134.254 101.976C133.245 101.976 132.379 102.208 131.656 102.672C130.946 103.135 130.401 103.811 130.019 104.697C129.637 105.57 129.446 106.628 129.446 107.869C129.446 109.724 129.868 111.177 130.714 112.228C131.56 113.265 132.74 113.783 134.254 113.783ZM134.971 99.3566C134.861 99.4793 134.732 99.5476 134.582 99.5612C134.445 99.5612 134.323 99.5271 134.213 99.4589C134.104 99.377 134.029 99.2747 133.988 99.1519C133.961 99.0292 133.995 98.8927 134.091 98.7427L135.912 96.103C136.035 95.9256 136.171 95.8165 136.321 95.7756C136.471 95.7346 136.621 95.7414 136.771 95.796C136.921 95.8369 137.037 95.912 137.119 96.0211C137.215 96.1302 137.262 96.2598 137.262 96.4099C137.276 96.5463 137.221 96.6896 137.099 96.8396L134.971 99.3566ZM144.682 115.236C144.423 115.236 144.225 115.168 144.089 115.031C143.952 114.881 143.884 114.67 143.884 114.397V101.382C143.884 101.11 143.952 100.898 144.089 100.748C144.225 100.598 144.403 100.523 144.621 100.523C144.839 100.523 144.996 100.564 145.092 100.646C145.201 100.714 145.323 100.844 145.46 101.035L154.382 112.924H153.891V101.341C153.891 101.082 153.959 100.884 154.095 100.748C154.232 100.598 154.43 100.523 154.689 100.523C154.934 100.523 155.118 100.598 155.241 100.748C155.378 100.884 155.446 101.082 155.446 101.341V114.417C155.446 114.677 155.384 114.881 155.262 115.031C155.153 115.168 154.989 115.236 154.771 115.236C154.566 115.236 154.402 115.195 154.279 115.113C154.157 115.031 154.027 114.902 153.891 114.724L144.989 102.835H145.46V114.397C145.46 114.67 145.392 114.881 145.255 115.031C145.119 115.168 144.928 115.236 144.682 115.236Z" fill="black"/>
</svg>
