<svg width="31" height="31" viewBox="0 0 31 31" fill="none" xmlns="http://www.w3.org/2000/svg">
<g clip-path="url(#clip0_91_489)">
<path d="M10.9066 0.36438C8.69749 0.36438 6.90663 2.15524 6.90663 4.36438V6.36438C6.90663 8.57352 8.69749 10.3644 10.9066 10.3644C13.1158 10.3644 14.9066 8.57352 14.9066 6.36438V4.36438C14.9066 2.15524 13.1158 0.36438 10.9066 0.36438Z" fill="#FFDA47"/>
<path d="M20.9063 0.36438C18.6971 0.36438 16.9063 2.15524 16.9063 4.36438V6.36438C16.9063 8.57352 18.6971 10.3644 20.9063 10.3644C23.1155 10.3644 24.9063 8.57352 24.9063 6.36438V4.36438C24.9063 2.15524 23.1155 0.36438 20.9063 0.36438Z" fill="#FFDA47"/>
<path d="M4.90619 10.3644C2.69705 10.3644 0.906189 12.1552 0.906189 14.3644V15.3644C0.906189 17.5735 2.69705 19.3644 4.90619 19.3644C7.11533 19.3644 8.90619 17.5735 8.90619 15.3644V14.3644C8.90619 12.1552 7.11533 10.3644 4.90619 10.3644Z" fill="#FFDA47"/>
<path d="M26.9062 10.3644C24.697 10.3644 22.9062 12.1552 22.9062 14.3644V15.3644C22.9062 17.5735 24.697 19.3644 26.9062 19.3644C29.1154 19.3644 30.9062 17.5735 30.9062 15.3644V14.3644C30.9062 12.1552 29.1154 10.3644 26.9062 10.3644Z" fill="#FFDA47"/>
<path d="M20.1319 15.9222C17.9423 13.2634 13.8706 13.2634 11.681 15.9222L5.84535 23.0083C3.42929 25.9421 5.51621 30.3643 9.31681 30.3643C9.85985 30.3643 10.3954 30.2379 10.8811 29.9951L11.6005 29.6353C14.3112 28.2799 17.5018 28.2799 20.2125 29.6353L20.9319 29.9951C21.4175 30.2379 21.9531 30.3643 22.4961 30.3643C26.2967 30.3643 28.3837 25.9421 25.9677 23.0083L20.1319 15.9222Z" fill="#FFDA47"/>
</g>
<defs>
<clipPath id="clip0_91_489">
<rect width="30" height="30" fill="white" transform="translate(0.906189 0.36438)"/>
</clipPath>
</defs>
</svg>
