<svg width="15" height="8" viewBox="0 0 15 8" fill="none" xmlns="http://www.w3.org/2000/svg">
<path d="M13.391 0.348661L7.50048 6.09066L1.60998 0.348661C1.50474 0.245863 1.36346 0.188312 1.21634 0.188312C1.06922 0.188312 0.92794 0.245863 0.822696 0.348661C0.771738 0.39859 0.731254 0.458185 0.703616 0.523957C0.675979 0.589728 0.661743 0.660354 0.661743 0.731696C0.661743 0.803038 0.675979 0.873663 0.703616 0.939435C0.731254 1.00521 0.771738 1.0648 0.822696 1.11473L7.08916 7.22445C7.19921 7.33171 7.34681 7.39175 7.50048 7.39175C7.65416 7.39175 7.80176 7.33171 7.9118 7.22445L14.1783 1.11591C14.2296 1.06594 14.2704 1.0062 14.2982 0.940212C14.3261 0.874223 14.3404 0.803322 14.3404 0.731696C14.3404 0.66007 14.3261 0.589169 14.2982 0.523179C14.2704 0.45719 14.2296 0.397448 14.1783 0.347482C14.073 0.244684 13.9317 0.187134 13.7846 0.187134C13.6375 0.187134 13.4962 0.244684 13.391 0.347482V0.348661Z" fill="white"/>
</svg>
