<svg width="30" height="30" viewBox="0 0 30 30" fill="none" xmlns="http://www.w3.org/2000/svg">
<path d="M29.9265 6.46644C29.8018 5.83632 29.5207 5.24077 29.1105 4.74009C29.0272 4.63497 28.9401 4.54146 28.8448 4.44659C28.1151 3.713 27.1 3.29224 26.0598 3.29224H3.94008C2.88826 3.29224 1.89902 3.70239 1.15459 4.447C1.06037 4.54099 0.973008 4.63544 0.886523 4.7439C0.478125 5.24247 0.198223 5.8372 0.0765234 6.46819C0.0256641 6.71599 0 6.97274 0 7.23249V22.7679C0 23.3083 0.109805 23.8346 0.32748 24.335C0.515859 24.7793 0.80168 25.2005 1.15436 25.553C1.24318 25.6414 1.33143 25.723 1.42564 25.8025C2.13076 26.3864 3.02361 26.7078 3.94008 26.7078H26.0598C26.9822 26.7078 27.8742 26.3852 28.5774 25.796C28.6714 25.72 28.7585 25.6401 28.8456 25.553C29.1865 25.2125 29.4575 24.8212 29.6522 24.3897L29.6779 24.3282C29.8915 23.8373 30 23.3127 30 22.7679V7.23249C30 6.97614 29.9753 6.71769 29.9265 6.46644ZM2.04041 5.80685C2.09613 5.72528 2.16727 5.64155 2.25803 5.55009C2.70855 5.09979 3.30604 4.852 3.94002 4.852H26.0597C26.6993 4.852 27.297 5.10021 27.7425 5.55097C27.8194 5.62872 27.8929 5.71503 27.957 5.80128L28.1262 6.02862L16.3195 16.3186C15.9555 16.6377 15.4869 16.8133 14.9998 16.8133C14.5175 16.8133 14.0493 16.6381 13.681 16.319L1.88613 6.03155L2.04041 5.80685ZM1.56768 22.905C1.56129 22.8627 1.55982 22.8157 1.55982 22.7679V7.55417L10.7221 15.547L1.65229 23.4549L1.56768 22.905ZM27.2402 24.8343C26.8856 25.039 26.4772 25.1475 26.0598 25.1475H3.94008C3.52248 25.1475 3.11426 25.039 2.75988 24.8343L2.3891 24.6194L11.7604 16.4527L12.7874 17.346C13.4034 17.8808 14.1891 18.1757 14.9999 18.1757C15.8138 18.1757 16.6007 17.8808 17.2164 17.346L18.243 16.4523L27.611 24.6199L27.2402 24.8343ZM28.4398 22.7679C28.4398 22.8149 28.4389 22.8614 28.433 22.9029L28.3518 23.4579L19.278 15.5513L28.4398 7.55804V22.7679Z" fill="#CDCCCE"/>
</svg>
