<svg width="14" height="16" viewBox="0 0 14 16" fill="none" xmlns="http://www.w3.org/2000/svg">
<path d="M7.36928 5.34524C6.98356 4.95812 6.51394 4.65224 5.99184 4.45368C5.74534 4.72762 5.5775 5.06112 5.50741 5.42274C5.48834 5.52024 5.47691 5.61799 5.47166 5.71528C5.51456 5.73003 5.55653 5.74578 5.59756 5.76365C6.05241 5.95649 6.44291 6.27931 6.71656 6.68599C6.93634 7.01115 7.08225 7.38759 7.13137 7.79549C7.14425 7.89728 7.15044 8.00099 7.15044 8.10684C7.15044 8.46015 7.07941 8.79296 6.95116 9.09665C6.79191 9.47118 6.54541 9.80253 6.23597 10.0602C6.17019 10.1158 6.10103 10.1673 6.02953 10.2157C5.62284 10.4903 5.13747 10.6496 4.60775 10.6496C4.25541 10.6496 3.92309 10.5783 3.61891 10.4502C3.16309 10.2574 2.77403 9.93437 2.49941 9.5279C2.22572 9.1219 2.06647 8.63537 2.06647 8.10684C2.06647 7.75378 2.13656 7.42146 2.26528 7.11703C2.43837 6.70843 2.71728 6.35181 3.06772 6.08553C3.06103 5.99324 3.05816 5.90099 3.05816 5.80874C3.05816 5.33484 3.13253 4.87234 3.27416 4.43512C2.73203 4.63228 2.24572 4.94574 1.84712 5.34531C1.14053 6.04978 0.701874 7.03028 0.703312 8.10687C0.701905 9.18371 1.14056 10.1642 1.84712 10.8689C2.43547 11.4582 3.2155 11.8594 4.08325 11.976V13.1932H2.27384V14.2417H4.08325V16H5.13219V14.2416H6.94303V13.1932H5.13219V11.9759C6.00044 11.8594 6.7814 11.4582 7.36928 10.8689C7.56572 10.6724 7.74072 10.4555 7.89278 10.2207C8.28612 9.61159 8.51453 8.88378 8.51356 8.10684C8.51356 7.92449 8.50069 7.74403 8.47684 7.56809C8.35719 6.70506 7.95572 5.93028 7.36928 5.34524Z" fill="black"/>
<path d="M9.90672 0V1.04847H11.5068L9.85331 2.70197C9.15718 2.17131 8.32043 1.90309 7.48797 1.90384C6.491 1.90309 5.48737 2.28572 4.7264 3.04813C4.1819 3.59119 3.83197 4.25794 3.67556 4.95813C3.67365 4.96669 3.67272 4.97528 3.67031 4.98244C3.66412 5.00963 3.65887 5.03703 3.65365 5.06303C3.64409 5.11356 3.63553 5.16387 3.62743 5.21416C3.62218 5.24444 3.6179 5.27616 3.61456 5.30641C3.60837 5.35244 3.60312 5.39963 3.59931 5.44681C3.59693 5.474 3.59406 5.50144 3.59265 5.52859C3.59172 5.54219 3.59075 5.556 3.58981 5.57056C3.5874 5.59797 3.58647 5.62609 3.5855 5.65325C3.58359 5.70475 3.58215 5.75719 3.58215 5.80869C3.58215 5.8485 3.58359 5.88831 3.58456 5.92906C3.58647 5.96912 3.58887 6.00869 3.59075 6.04972L3.59693 6.13791C3.59693 6.15247 3.59931 6.16722 3.60025 6.18297C3.68418 7.05403 4.06034 7.90559 4.7264 8.57047C5.12978 8.97409 5.60178 9.27159 6.10384 9.46159C6.2559 9.294 6.3799 9.09997 6.46906 8.89112C6.56106 8.67206 6.61353 8.44031 6.624 8.20122C6.28312 8.07869 5.96462 7.88153 5.69 7.60691C5.44159 7.35731 5.25565 7.07197 5.13215 6.76584C5.04397 6.54959 4.98722 6.32316 4.9624 6.09475C4.94622 5.95956 4.9424 5.82322 4.94859 5.68806C4.9505 5.65444 4.95287 5.62203 4.95478 5.58938C4.95715 5.56531 4.95906 5.54122 4.96334 5.51691C4.96334 5.50759 4.96525 5.49831 4.96622 5.48878C4.96859 5.46566 4.97147 5.44159 4.97575 5.41869C4.981 5.38722 4.98625 5.35456 4.99243 5.32334C5.02006 5.18053 5.05965 5.04012 5.11209 4.90375C5.12165 4.87872 5.13115 4.85466 5.14262 4.82937C5.15312 4.80316 5.16453 4.77694 5.17693 4.75072C5.18743 4.7245 5.19984 4.69825 5.21365 4.673C5.22509 4.64703 5.2389 4.62175 5.25372 4.59672C5.32284 4.46847 5.4044 4.345 5.49784 4.22744C5.5169 4.20337 5.53693 4.17931 5.5565 4.15616C5.59987 4.10681 5.64375 4.05866 5.69093 4.01147C5.74956 3.95281 5.80918 3.89822 5.87115 3.84791C6.07428 3.67913 6.2969 3.54681 6.53053 3.45266C6.98872 3.26697 7.49315 3.21975 7.97425 3.31319C8.45581 3.40663 8.91159 3.63694 9.28637 4.01144C9.53575 4.26103 9.72025 4.54638 9.84375 4.85225C10.0307 5.31044 10.0779 5.81391 9.9844 6.29525C9.89 6.77631 9.65922 7.23238 9.28637 7.60691C9.20437 7.68866 9.11856 7.76425 9.0294 7.83122C9.03462 7.92347 9.0375 8.01575 9.0375 8.10678C9.03894 8.57666 8.96406 9.03984 8.82056 9.48041C9.34265 9.29159 9.83228 8.98762 10.2495 8.57044C11.0109 7.81022 11.3947 6.80659 11.3938 5.80866C11.3947 4.97594 11.1263 4.14062 10.5947 3.44331L12.2482 1.78981V3.39062H13.2966V0H9.90672Z" fill="black"/>
</svg>
