<svg width="80" height="41" viewBox="0 0 80 41" fill="none" xmlns="http://www.w3.org/2000/svg">
<path d="M73.0559 17.0725V23.6312C73.0549 24.4571 72.7261 25.2489 72.1418 25.8329C71.5574 26.4169 70.7651 26.7455 69.9387 26.7465H67.3137C67.1832 26.7465 67.058 26.6947 66.9657 26.6024C66.8734 26.5102 66.8215 26.3851 66.8215 26.2546C66.8215 26.1241 66.8734 25.999 66.9657 25.9068C67.058 25.8145 67.1832 25.7627 67.3137 25.7627H69.9387C70.5042 25.762 71.0462 25.5372 71.4461 25.1376C71.8459 24.738 72.0708 24.1963 72.0715 23.6312V17.0725C72.0708 16.5074 71.8459 15.9656 71.4461 15.566C71.0462 15.1664 70.5042 14.9416 69.9387 14.9409H67.3137C67.1832 14.9409 67.058 14.8891 66.9657 14.7969C66.8734 14.7046 66.8215 14.5795 66.8215 14.4491C66.8215 14.3186 66.8734 14.1935 66.9657 14.1012C67.058 14.009 67.1832 13.9572 67.3137 13.9572H69.9387C70.7651 13.9582 71.5574 14.2868 72.1418 14.8708C72.7261 15.4548 73.0549 16.2466 73.0559 17.0725ZM68.974 20.0042L66.349 17.3808C66.2562 17.2912 66.1318 17.2417 66.0028 17.2429C65.8737 17.244 65.7503 17.2958 65.6591 17.3871C65.5679 17.4783 65.5162 17.6017 65.5151 17.7307C65.514 17.8597 65.5637 17.9839 65.6534 18.0766L67.4378 19.8599H62.0637C61.9332 19.8599 61.808 19.9118 61.7157 20.004C61.6234 20.0963 61.5715 20.2214 61.5715 20.3518C61.5715 20.4823 61.6234 20.6074 61.7157 20.6997C61.808 20.7919 61.9332 20.8437 62.0637 20.8437H67.4378L65.6534 22.6277C65.5637 22.7204 65.514 22.8446 65.5151 22.9736C65.5162 23.1026 65.5679 23.226 65.6591 23.3172C65.7503 23.4085 65.8737 23.4603 66.0028 23.4615C66.1318 23.4626 66.2562 23.4131 66.349 23.3236L68.974 20.7001C69.0198 20.6544 69.0561 20.6002 69.0808 20.5405C69.1056 20.4808 69.1183 20.4168 69.1183 20.3522C69.1183 20.2875 69.1056 20.2235 69.0808 20.1638C69.0561 20.1041 69.0198 20.0499 68.974 20.0042Z" fill="#7C58D3"/>
<rect x="0.769434" y="1.06942" width="77.963" height="38.5648" rx="5.90278" stroke="#7C58D3" stroke-width="0.787037"/>
<path d="M9.63453 24.262C9.21897 24.262 8.80342 24.229 8.38786 24.1629C7.97231 24.1062 7.58036 24.0165 7.21203 23.8937C6.8437 23.7615 6.51314 23.6009 6.22036 23.412C6.05036 23.2987 5.93231 23.1618 5.8662 23.0012C5.80009 22.8406 5.77647 22.6848 5.79536 22.5337C5.8237 22.3731 5.88509 22.2362 5.97953 22.1229C6.08342 22.0001 6.21092 21.9245 6.36203 21.8962C6.51314 21.8679 6.67842 21.9104 6.85786 22.0237C7.27342 22.2692 7.71259 22.4487 8.17536 22.562C8.63814 22.6754 9.12453 22.732 9.63453 22.732C10.3806 22.732 10.9237 22.6093 11.2637 22.3637C11.6037 22.1087 11.7737 21.7829 11.7737 21.3862C11.7737 21.0556 11.6509 20.7959 11.4054 20.607C11.1693 20.4181 10.7584 20.2623 10.1729 20.1395L8.61453 19.8137C7.71731 19.6248 7.04675 19.3084 6.60286 18.8645C6.16842 18.4112 5.9512 17.8162 5.9512 17.0795C5.9512 16.6167 6.04564 16.1965 6.23453 15.8187C6.42342 15.4409 6.68786 15.1151 7.02786 14.8412C7.37731 14.5673 7.78814 14.3595 8.26036 14.2179C8.74203 14.0667 9.27092 13.9912 9.84703 13.9912C10.4137 13.9912 10.952 14.062 11.462 14.2037C11.972 14.3454 12.4301 14.5531 12.8362 14.827C12.9873 14.9309 13.0865 15.0584 13.1337 15.2095C13.1904 15.3606 13.2045 15.5117 13.1762 15.6629C13.1479 15.8045 13.0818 15.9273 12.9779 16.0312C12.874 16.1351 12.7418 16.1965 12.5812 16.2154C12.4301 16.2342 12.2554 16.187 12.057 16.0737C11.7076 15.8754 11.3534 15.7337 10.9945 15.6487C10.6356 15.5637 10.2484 15.5212 9.83286 15.5212C9.39842 15.5212 9.02536 15.5826 8.7137 15.7054C8.40203 15.8281 8.1612 16.0029 7.9912 16.2295C7.83064 16.4467 7.75036 16.7065 7.75036 17.0087C7.75036 17.3487 7.8637 17.6226 8.09036 17.8304C8.31703 18.0287 8.70425 18.1845 9.25203 18.2979L10.7962 18.6237C11.7312 18.822 12.4254 19.1337 12.8787 19.5587C13.3415 19.9837 13.5729 20.5504 13.5729 21.2587C13.5729 21.712 13.4784 22.1229 13.2895 22.4912C13.1101 22.8595 12.8456 23.1759 12.4962 23.4404C12.1562 23.7048 11.7454 23.9079 11.2637 24.0495C10.782 24.1912 10.239 24.262 9.63453 24.262ZM15.8375 24.2195C15.5542 24.2195 15.337 24.1345 15.1859 23.9645C15.0348 23.7945 14.9592 23.5584 14.9592 23.2562V18.057C14.9592 17.7454 15.0348 17.5092 15.1859 17.3487C15.337 17.1787 15.5542 17.0937 15.8375 17.0937C16.1209 17.0937 16.3381 17.1787 16.4892 17.3487C16.6498 17.5092 16.73 17.7454 16.73 18.057V23.2562C16.73 23.5584 16.6545 23.7945 16.5034 23.9645C16.3523 24.1345 16.1303 24.2195 15.8375 24.2195ZM15.8375 15.7762C15.507 15.7762 15.2473 15.6959 15.0584 15.5354C14.8789 15.3654 14.7892 15.134 14.7892 14.8412C14.7892 14.539 14.8789 14.3076 15.0584 14.147C15.2473 13.9865 15.507 13.9062 15.8375 13.9062C16.1775 13.9062 16.4373 13.9865 16.6167 14.147C16.7962 14.3076 16.8859 14.539 16.8859 14.8412C16.8859 15.134 16.7962 15.3654 16.6167 15.5354C16.4373 15.6959 16.1775 15.7762 15.8375 15.7762ZM21.8 26.812C21.29 26.812 20.7942 26.7648 20.3125 26.6704C19.8403 26.5759 19.4106 26.4295 19.0234 26.2312C18.8439 26.1368 18.7212 26.0234 18.655 25.8912C18.5984 25.759 18.5795 25.622 18.5984 25.4804C18.6267 25.3481 18.6834 25.2301 18.7684 25.1262C18.8628 25.0223 18.9762 24.9515 19.1084 24.9137C19.2406 24.8759 19.3775 24.8948 19.5192 24.9704C19.9348 25.1781 20.3267 25.3104 20.695 25.367C21.0728 25.4331 21.3939 25.4662 21.6584 25.4662C22.2912 25.4662 22.7634 25.3104 23.075 24.9987C23.3962 24.6965 23.5567 24.2431 23.5567 23.6387V22.3637H23.6842C23.5425 22.8454 23.245 23.2326 22.7917 23.5254C22.3478 23.8087 21.8425 23.9504 21.2759 23.9504C20.6525 23.9504 20.1095 23.8087 19.6467 23.5254C19.1839 23.2326 18.825 22.8265 18.57 22.307C18.315 21.7876 18.1875 21.1831 18.1875 20.4937C18.1875 19.9742 18.2584 19.5067 18.4 19.0912C18.5512 18.6662 18.7589 18.3026 19.0234 18.0004C19.2973 17.6981 19.6231 17.4667 20.0009 17.3062C20.3881 17.1362 20.8131 17.0512 21.2759 17.0512C21.8614 17.0512 22.3714 17.1976 22.8059 17.4904C23.2498 17.7737 23.5378 18.1515 23.67 18.6237L23.5284 18.9779V17.972C23.5284 17.6792 23.6039 17.4573 23.755 17.3062C23.9156 17.1551 24.1328 17.0795 24.4067 17.0795C24.69 17.0795 24.9073 17.1551 25.0584 17.3062C25.2095 17.4573 25.285 17.6792 25.285 17.972V23.4262C25.285 24.5501 24.9875 25.3954 24.3925 25.962C23.7975 26.5287 22.9334 26.812 21.8 26.812ZM21.7575 22.6045C22.1259 22.6045 22.4423 22.5195 22.7067 22.3495C22.9712 22.1795 23.1742 21.9387 23.3159 21.627C23.467 21.3059 23.5425 20.9281 23.5425 20.4937C23.5425 19.842 23.382 19.332 23.0609 18.9637C22.7398 18.5859 22.3053 18.397 21.7575 18.397C21.3892 18.397 21.0728 18.482 20.8084 18.652C20.5439 18.822 20.3362 19.0629 20.185 19.3745C20.0434 19.6862 19.9725 20.0592 19.9725 20.4937C19.9725 21.1454 20.1331 21.6601 20.4542 22.0379C20.7753 22.4156 21.2098 22.6045 21.7575 22.6045ZM27.9982 24.2337C27.7149 24.2337 27.4976 24.1581 27.3465 24.007C27.1954 23.8465 27.1199 23.6198 27.1199 23.327V17.972C27.1199 17.6792 27.1954 17.4573 27.3465 17.3062C27.4976 17.1551 27.7101 17.0795 27.984 17.0795C28.2579 17.0795 28.4704 17.1551 28.6215 17.3062C28.7726 17.4573 28.8482 17.6792 28.8482 17.972V18.9354L28.6924 18.5812C28.9001 18.0806 29.2212 17.7029 29.6557 17.4479C30.0996 17.1834 30.6001 17.0512 31.1574 17.0512C31.7146 17.0512 32.1726 17.1551 32.5315 17.3629C32.8904 17.5706 33.1596 17.887 33.339 18.312C33.5185 18.7276 33.6082 19.2565 33.6082 19.8987V23.327C33.6082 23.6198 33.5326 23.8465 33.3815 24.007C33.2304 24.1581 33.0132 24.2337 32.7299 24.2337C32.4465 24.2337 32.2246 24.1581 32.064 24.007C31.9129 23.8465 31.8374 23.6198 31.8374 23.327V19.9837C31.8374 19.4454 31.7335 19.0534 31.5257 18.8079C31.3274 18.5623 31.0157 18.4395 30.5907 18.4395C30.0712 18.4395 29.6557 18.6048 29.344 18.9354C29.0418 19.2565 28.8907 19.6862 28.8907 20.2245V23.327C28.8907 23.9315 28.5932 24.2337 27.9982 24.2337ZM41.7603 24.262C41.1842 24.262 40.7073 24.1581 40.3295 23.9504C39.9517 23.7331 39.6684 23.412 39.4795 22.987C39.3 22.562 39.2103 22.0331 39.2103 21.4004V17.972C39.2103 17.6698 39.2859 17.4479 39.437 17.3062C39.5881 17.1551 39.8053 17.0795 40.0887 17.0795C40.372 17.0795 40.5892 17.1551 40.7403 17.3062C40.9009 17.4479 40.9812 17.6698 40.9812 17.972V21.4287C40.9812 21.9198 41.0803 22.2834 41.2787 22.5195C41.477 22.7556 41.7934 22.8737 42.2278 22.8737C42.7 22.8737 43.0873 22.7131 43.3895 22.392C43.6917 22.0615 43.8428 21.627 43.8428 21.0887V17.972C43.8428 17.6698 43.9184 17.4479 44.0695 17.3062C44.2206 17.1551 44.4378 17.0795 44.7212 17.0795C45.0045 17.0795 45.2217 17.1551 45.3728 17.3062C45.5334 17.4479 45.6137 17.6698 45.6137 17.972V23.327C45.6137 23.9315 45.3256 24.2337 44.7495 24.2337C44.4756 24.2337 44.2631 24.1581 44.112 24.007C43.9609 23.8465 43.8853 23.6198 43.8853 23.327V22.2504L44.0837 22.6754C43.8853 23.1854 43.5831 23.5773 43.177 23.8512C42.7803 24.1251 42.3081 24.262 41.7603 24.262ZM48.3351 26.7837C48.0518 26.7837 47.8345 26.7081 47.6834 26.557C47.5323 26.4059 47.4568 26.184 47.4568 25.8912V17.972C47.4568 17.6792 47.5323 17.4573 47.6834 17.3062C47.8345 17.1551 48.047 17.0795 48.3209 17.0795C48.6043 17.0795 48.8215 17.1551 48.9726 17.3062C49.1237 17.4573 49.1993 17.6792 49.1993 17.972V19.077L49.0434 18.652C49.1851 18.1704 49.4732 17.7831 49.9076 17.4904C50.3515 17.1976 50.8662 17.0512 51.4518 17.0512C52.0562 17.0512 52.5851 17.1976 53.0384 17.4904C53.5012 17.7831 53.8601 18.1987 54.1151 18.737C54.3701 19.2659 54.4976 19.9034 54.4976 20.6495C54.4976 21.3862 54.3701 22.0284 54.1151 22.5762C53.8601 23.1145 53.5059 23.5301 53.0526 23.8229C52.5993 24.1156 52.0657 24.262 51.4518 24.262C50.8757 24.262 50.3704 24.1204 49.9359 23.837C49.5015 23.5443 49.2087 23.1665 49.0576 22.7037H49.2276V25.8912C49.2276 26.184 49.1473 26.4059 48.9868 26.557C48.8357 26.7081 48.6184 26.7837 48.3351 26.7837ZM50.9559 22.9162C51.3054 22.9162 51.6123 22.8312 51.8768 22.6612C52.1412 22.4912 52.3443 22.2409 52.4859 21.9104C52.637 21.5704 52.7126 21.1501 52.7126 20.6495C52.7126 19.894 52.552 19.332 52.2309 18.9637C51.9098 18.5859 51.4848 18.397 50.9559 18.397C50.6065 18.397 50.2995 18.482 50.0351 18.652C49.7707 18.8126 49.5629 19.0629 49.4118 19.4029C49.2701 19.7334 49.1993 20.149 49.1993 20.6495C49.1993 21.3956 49.3598 21.9623 49.6809 22.3495C50.002 22.7273 50.427 22.9162 50.9559 22.9162Z" fill="#232323"/>
</svg>
