<svg width="76" height="97" viewBox="0 0 76 97" fill="none" xmlns="http://www.w3.org/2000/svg">
<g clip-path="url(#clip0_77_464)">
<path opacity="0.5" d="M68.7263 52.0673C68.5419 50.5151 67.6033 49.1813 66.2147 48.4999C65.5367 48.165 64.7837 48.0092 64.028 48.0474C63.2723 48.0857 62.5391 48.3167 61.8985 48.7184L58.7305 50.6888C58.2056 51.0146 57.8004 51.5009 57.5752 52.0752C57.3455 52.6518 57.3063 53.2864 57.4633 53.8868C57.6161 54.4856 57.9582 55.0194 58.4389 55.4091C58.9139 55.7976 59.5036 56.0199 60.1175 56.0418L60.1585 56.0434C60.9283 56.0796 61.6822 56.2747 62.3726 56.6164C63.0629 56.9581 63.6746 57.439 64.1689 58.0287C64.5635 58.4994 65.1005 58.8297 65.6993 58.9703C66.296 59.1108 66.9225 59.0514 67.4819 58.8013C68.0459 58.5513 68.5133 58.1255 68.8137 57.5878C69.1192 57.0475 69.2434 56.4241 69.1684 55.8084L68.7263 52.0673ZM60.298 48.0339C60.9442 48.0897 61.5691 47.8444 62.0601 47.3422C62.5274 46.866 62.8166 46.2089 62.8749 45.4929C62.9325 44.7769 62.7528 44.0798 62.369 43.5296C61.9655 42.9512 61.3886 42.6022 60.7432 42.5472C59.4461 42.4364 58.2908 43.5768 58.1671 45.0897C58.0701 46.2946 58.6572 47.3784 59.5556 47.8248C59.7842 47.9388 60.034 48.0119 60.298 48.0339ZM65.0996 47.0373C66.4314 47.6299 68.1132 46.976 68.8476 45.5801C69.5813 44.1835 69.0951 42.5661 67.7633 41.9727C66.4314 41.3801 64.7497 42.034 64.0152 43.4306C63.2816 44.8264 63.7678 46.4447 65.0996 47.0373ZM69.1132 49.7394C69.2929 49.913 69.4954 50.0529 69.7137 50.1583C70.7303 50.6471 72.0803 50.3878 73.0094 49.4383C73.5437 48.8921 73.8644 48.1966 73.9117 47.4813C73.9613 46.7323 73.71 46.0501 73.204 45.5605C72.6973 45.0709 72.0038 44.8398 71.2512 44.9105C70.5325 44.9781 69.8422 45.3161 69.3079 45.8615C68.1809 47.0145 68.0927 48.753 69.1132 49.7394ZM75.2396 51.7435C74.5997 50.4404 72.9566 50.0105 71.5767 50.7847C70.1976 51.5612 69.5939 53.2525 70.2322 54.5564C70.4647 55.0319 70.8312 55.3911 71.2693 55.6174C72.0338 56.0143 73.0165 56.008 73.8952 55.5153C75.2743 54.7387 75.8779 53.0466 75.2396 51.7435ZM60.8457 10.4124C60.6613 8.85935 59.7227 7.52639 58.3341 6.84498C57.6561 6.51004 56.9031 6.35424 56.1474 6.3925C55.3917 6.43075 54.6585 6.66178 54.0179 7.06347L50.8499 9.03383C50.325 9.35963 49.9198 9.84595 49.6946 10.4202C49.4647 10.997 49.4255 11.632 49.5827 12.2326C49.7357 12.8311 50.0778 13.3646 50.5583 13.7542C51.0333 14.1427 51.623 14.3649 52.2369 14.3869L52.2779 14.3885C53.0477 14.4246 53.8016 14.6197 54.492 14.9615C55.1823 15.3032 55.794 15.7841 56.2883 16.3737C56.6829 16.8444 57.2199 17.1748 57.8187 17.3153C58.4154 17.4559 59.0419 17.3965 59.6013 17.1463C60.1653 16.8964 60.6327 16.4705 60.9331 15.9328C61.2386 15.3926 61.3628 14.7691 61.2878 14.1535L60.8457 10.4124ZM52.4174 6.37891C53.0636 6.43471 53.6885 6.1895 54.1795 5.68728C54.6468 5.211 54.936 4.55395 54.9943 3.83796C55.0519 3.12197 54.8722 2.42484 54.4884 1.87468C54.0849 1.29622 53.508 0.947264 52.8626 0.892248C51.5655 0.78143 50.4102 1.92183 50.2865 3.43477C50.1895 4.63962 50.7766 5.72344 51.675 6.16985C51.9036 6.28381 52.1534 6.35691 52.4174 6.37891ZM57.219 5.38234C58.5508 5.97494 60.2326 5.32103 60.967 3.9252C61.7007 2.52858 61.2145 0.911111 59.8827 0.317724C58.5508 -0.274877 56.8691 0.379027 56.1346 1.77565C55.401 3.17148 55.8872 4.78974 57.219 5.38234ZM61.2326 8.08519C61.4123 8.25889 61.6148 8.398 61.8331 8.50331C62.8497 8.99217 64.1997 8.73281 65.1288 7.78339C65.6631 7.23716 65.9838 6.5416 66.0311 5.82639C66.0807 5.07739 65.8294 4.39519 65.3234 3.90555C64.8167 3.41591 64.1232 3.18484 63.3706 3.25558C62.6519 3.32317 61.9616 3.66112 61.4273 4.20657C60.3003 5.35954 60.2121 7.09884 61.2326 8.08519ZM67.359 10.0886C66.7191 8.78468 65.076 8.35556 63.6961 9.12971C62.317 9.90622 61.7133 11.5976 62.3517 12.9014C62.5841 13.3769 62.9506 13.7361 63.3887 13.9625C64.1532 14.3594 65.1359 14.3531 66.0146 13.8603C67.3937 13.0838 67.9973 11.3924 67.359 10.0893V10.0886ZM18.1975 45.5691C17.9768 43.7945 16.8499 42.2705 15.1847 41.4917C14.3663 41.1083 13.4663 40.9307 12.5632 40.9742C11.6601 41.0178 10.7814 41.2813 10.004 41.7416L6.20239 43.9941C5.58027 44.3582 5.09395 44.9144 4.81698 45.5786C4.54164 46.2343 4.49421 46.963 4.68223 47.6487C4.86978 48.3404 5.27485 48.9416 5.85249 49.388C6.43057 49.8351 7.13565 50.0882 7.86678 50.1111L7.91642 50.1127C9.77152 50.1913 11.5234 51.0165 12.7283 52.3825C13.0372 52.7319 13.4149 53.0141 13.8379 53.2117C14.2853 53.42 14.7716 53.5324 15.2653 53.5416C15.759 53.5508 16.2491 53.4566 16.7041 53.2651C17.3728 52.9866 17.9334 52.5 18.3023 51.8779C18.6695 51.257 18.8169 50.5544 18.7286 49.8447L18.1975 45.5691ZM8.64301 40.9596C9.3964 41.0233 10.1261 40.7427 10.6991 40.1697C11.2436 39.6243 11.5817 38.8729 11.6487 38.0555C11.7164 37.2366 11.5068 36.4396 11.0592 35.8117C10.5887 35.1507 9.91494 34.7522 9.16235 34.6893C7.64927 34.562 6.30169 35.8643 6.15669 37.5942C6.04399 38.9719 6.72803 40.2098 7.77615 40.7207C8.04409 40.8511 8.33567 40.9337 8.64301 40.9596ZM14.0798 40.6869C15.6024 41.4492 17.5237 40.6083 18.3629 38.814C19.2022 37.0189 18.6466 34.9385 17.1233 34.1761C15.6008 33.4138 13.6795 34.2547 12.8402 36.0498C12.0009 37.8449 12.5565 39.9245 14.0798 40.6869ZM18.779 43.3575C18.9839 43.5563 19.2156 43.7159 19.4647 43.8361C20.6278 44.3942 22.1701 44.0979 23.2316 43.014C23.8423 42.3892 24.2088 41.5954 24.2631 40.7773C24.3199 39.9206 24.033 39.1409 23.4538 38.5813C22.8746 38.0217 22.0826 37.7585 21.2228 37.8386C20.4009 37.9156 19.6128 38.3023 19.0013 38.9264C17.7128 40.2436 17.6127 42.2305 18.779 43.3575ZM24.0157 46.2419C23.3758 44.938 21.7335 44.5089 20.3528 45.2831C18.9737 46.0596 18.37 47.7509 19.0084 49.0548C19.2408 49.5303 19.6073 49.8895 20.0455 50.1158C20.8099 50.5127 21.7926 50.5064 22.6713 50.0136C24.0504 49.2371 24.654 47.545 24.0157 46.2419ZM16.5283 87.3003C16.2714 85.1932 14.9569 83.3832 13.0136 82.4589C12.0606 82.0039 11.009 81.7928 9.95369 81.8447C8.8984 81.8966 7.87269 82.2098 6.96918 82.756L2.53476 85.4298C1.80573 85.8659 1.23828 86.5261 0.917665 87.3113C0.596131 88.0917 0.54075 88.9558 0.760053 89.7706C0.978222 90.5889 1.45796 91.314 2.12655 91.836C2.7976 92.3655 3.6213 92.6664 4.47654 92.6943L4.53407 92.6966C5.60434 92.742 6.65412 93.0043 7.61936 93.4677C8.5846 93.931 9.44505 94.5856 10.1482 95.3916C10.7061 96.0361 11.4575 96.484 12.2909 96.6688C13.1261 96.8599 14.0007 96.7795 14.7867 96.4393C15.5703 96.1057 16.2245 95.5281 16.6513 94.7927C17.0778 94.064 17.2525 93.2157 17.1485 92.3783L16.5283 87.3003ZM5.05971 81.827C5.92027 81.8993 6.75404 81.5834 7.40891 80.9389C8.03148 80.3251 8.41763 79.4802 8.49486 78.5599C8.57209 77.6395 8.33252 76.7428 7.82107 76.0354C7.28361 75.2927 6.51289 74.8447 5.6539 74.7732C3.92411 74.6302 2.38346 76.0959 2.21796 78.0419C2.08951 79.591 2.87205 80.9837 4.0699 81.5582C4.37488 81.7052 4.70823 81.7987 5.05971 81.827ZM11.919 81.5244C13.6322 82.3717 15.7939 81.438 16.738 79.4433C17.6821 77.4485 17.0563 75.1371 15.3431 74.2898C13.6314 73.4434 11.4698 74.3779 10.5249 76.3726C9.58159 78.3665 10.2065 80.678 11.9198 81.5244H11.919ZM17.3038 85.7049C17.5363 85.9289 17.7963 86.1073 18.0761 86.2425C19.3843 86.8704 21.1196 86.5372 22.3135 85.3174C23.0007 84.6148 23.4128 83.7212 23.4743 82.8008C23.5381 81.838 23.215 80.9601 22.5641 80.3314C21.9124 79.7018 21.0211 79.4048 20.0533 79.4951C19.1297 79.5824 18.2424 80.017 17.5552 80.7189C16.1052 82.2004 15.9917 84.4371 17.3038 85.7049ZM23.9794 88.0894C23.2481 86.6001 21.371 86.1081 19.7933 86.9938C18.2172 87.8811 17.5276 89.8138 18.2566 91.3031C18.5096 91.8249 18.9255 92.2507 19.4418 92.5166C20.315 92.9693 21.4387 92.9623 22.4427 92.3995C24.0188 91.5122 24.7084 89.5788 23.9794 88.0894Z" fill="#EFEFEF"/>
</g>
<defs>
<clipPath id="clip0_77_464">
<rect width="74.8657" height="96.6709" fill="white" transform="translate(0.628876 0.0993652)"/>
</clipPath>
</defs>
</svg>
