<svg width="102" height="72" viewBox="0 0 102 72" fill="none" xmlns="http://www.w3.org/2000/svg">
<g clip-path="url(#clip0_77_100)">
<path fill-rule="#000000" clip-rule="#000000" d="M49.7963 54.5574C47.2156 50.0784 47.674 46.7768 51.1689 44.6526C52.0036 44.1457 52.8234 43.9576 53.633 44.0891C54.437 44.2213 54.9985 44.5558 55.3056 45.0973C56.1837 46.6241 56.3058 48.6421 55.6632 51.1551C55.0221 53.6673 53.8968 55.775 52.2895 57.4805C51.6343 57.2806 50.798 56.3055 49.7963 54.5574ZM58.547 68.0236C58.2005 67.4192 57.346 66.1584 55.9915 64.2372C54.8197 62.6356 54.0267 61.3992 53.6125 60.535C54.0299 59.8093 56.0325 58.5312 57.5681 54.7865C59.2731 50.6246 59.3904 47.1837 57.7973 44.4188C55.675 40.7355 52.9132 39.9249 49.5144 41.9908C49.5073 41.9955 49.4821 42.0223 49.4726 42.0286C48.0291 42.7684 46.688 43.9175 45.943 44.7722C45.1248 45.7119 44.3019 46.5226 43.9562 47.6858C43.9192 47.7614 43.4561 48.9687 43.5853 49.1859C43.6719 50.1697 45.4666 52.3671 45.6721 52.6599C46.4707 53.9805 47.266 55.3114 48.0724 56.5691C48.6473 57.4215 48.8954 58.2668 48.8151 59.1081C48.7347 59.9502 48.7804 60.5169 48.9434 60.801C49.1088 61.0859 49.9223 61.4511 51.3847 61.8895C52.615 63.7363 53.8304 65.593 55.0308 67.4593C56.6349 69.7418 57.6894 70.8176 58.1981 70.6807C58.1981 70.6807 59.3975 70.4666 59.3077 70.0023C59.2211 69.5379 59.0053 68.817 58.547 68.0236ZM81.9208 42.3686C81.7657 42.5928 81.5669 42.7833 81.3365 42.929C80.3552 43.5389 78.6377 42.718 76.1791 40.4608C74.8695 39.233 71.5368 35.3144 71.4439 35.3718C72.5763 40.8323 71.4596 45.3727 70.2996 46.0984C68.6475 47.1294 66.6968 46.7784 64.4485 45.0477C62.7861 43.7766 61.5426 42.3954 60.7079 40.9079C60.0779 39.7785 59.7046 39.0772 59.5896 38.7994C59.1037 37.4882 59.2557 36.5855 60.0511 36.0896C60.3275 35.9157 60.7992 35.9708 61.4718 36.2478C62.1403 36.5256 62.516 36.7295 62.5869 36.8586C62.6955 37.0498 62.8019 37.6299 62.9058 38.5892C63.0082 39.5494 63.1169 40.124 63.2255 40.3176C63.6405 41.0621 64.3587 41.7917 65.3754 42.5055C66.5787 43.3217 67.4993 43.5318 68.1395 43.132C69.1192 42.5197 69.4468 40.5277 69.1302 37.1529C68.8105 35.2593 68.6065 33.3562 68.2482 31.4917C68.1151 30.8094 68.9176 30.5489 69.2208 30.3592C69.9256 29.9185 70.669 30.068 71.4502 30.7976C71.7589 31.1281 72.2117 32.1544 73.2134 33.5766C74.2552 35.1467 75.2609 36.0778 75.8169 36.6665C76.376 37.2584 77.4659 38.0454 79.0929 39.0339C80.5702 39.9012 81.3585 40.4325 81.4672 40.6237C81.4672 40.6237 82.6295 41.3557 81.9208 42.3686ZM88.2294 21.1092C87.9389 20.7337 87.6183 20.4976 87.1647 20.3867C85.637 20.0112 84.3825 20.2104 84.0746 20.4C83.3233 20.8612 82.6579 22.1961 82.0893 24.4045C81.4357 27.0411 81.1459 28.9583 80.9648 29.2802L80.445 28.5797C79.9119 27.6416 79.5906 27.1205 79.4921 27.0111C79.1732 26.7428 78.1061 25.9502 77.243 26.4917C76.1547 27.47 76.8256 28.756 77.0225 29.0992C77.8392 30.5363 79.0062 32.1214 80.5182 33.8521C82.6563 36.2502 84.2069 37.1521 85.1724 36.5634C85.7441 36.2092 85.9063 35.7528 85.6661 35.1845C85.0164 33.6829 84.5258 32.3622 84.1951 31.2123C83.7848 29.776 83.8565 28.0123 84.4116 25.9219C84.8337 24.3415 85.3582 23.0886 85.9851 22.1638C86.0402 22.1842 86.8104 22.4652 86.8419 22.4865C87.6939 23.0626 88.9658 22.0591 88.2294 21.1092ZM101.548 12.7855C101.156 12.0378 100.091 11.139 98.5244 11.065C98.4701 11.0603 97.4574 11.065 96.8533 11.5561C96.1478 12.1361 95.4107 13.4159 94.8279 15.7022C94.1609 18.4293 93.7372 19.9585 93.5506 20.2914C93.5506 20.2914 92.278 18.5088 92.178 18.3962C91.8527 18.1208 91.27 17.2818 89.8808 17.8611C88.709 18.5536 89.4579 20.2009 89.6556 20.5551C90.4911 22.0434 91.6818 23.6828 93.2253 25.4709C95.4059 27.9509 96.988 28.8859 97.9716 28.2743C98.5567 27.9099 98.7229 27.4354 98.4772 26.8482C97.8141 25.2954 97.3133 23.9299 96.977 22.7407C96.558 21.2548 96.6305 19.4336 97.1975 17.27C97.6731 15.4527 98.2921 14.0801 99.03 13.0995C99.6033 13.3033 100.116 14.1108 100.569 14.4925C101.621 15.3717 102.233 14.099 101.548 12.7855ZM6.62239 46.658C3.84802 42.3009 4.08821 38.93 7.34059 36.543C8.11627 35.9747 8.90141 35.7292 9.69049 35.8055C10.4772 35.8866 11.0395 36.1872 11.3734 36.7122C12.3184 38.1949 12.5554 40.2286 12.0908 42.8141C11.6246 45.3995 10.6654 47.6103 9.21484 49.4409C8.56751 49.2835 7.70047 48.3548 6.62239 46.658ZM15.9228 59.6811C15.5503 59.0916 14.6431 57.8764 13.2138 56.0237C11.9821 54.4842 11.1371 53.2887 10.6835 52.4427C11.0418 51.6792 12.9027 50.2516 14.1564 46.3605C15.5519 42.0302 15.4518 38.5452 13.7406 35.8574C11.4624 32.2741 8.73682 31.6436 5.5758 33.9638C5.56282 33.9764 5.55097 33.9901 5.54036 34.0048C4.18586 34.8469 2.95894 36.103 2.29035 37.0191C1.55797 38.0249 0.811424 38.9001 0.549974 40.1011C0.513749 40.1783 0.142837 41.4336 0.280649 41.6437C0.424762 42.6346 2.29901 44.7329 2.51479 45.0146C3.36844 46.2991 4.22209 47.5882 5.07967 48.8081C5.68605 49.629 5.97979 50.4664 5.95144 51.3267C5.92939 52.183 6.0042 52.7512 6.17981 53.0282C6.36094 53.3053 7.16734 53.6185 8.6124 53.9617C9.91549 55.7488 11.2062 57.5448 12.4845 59.3497C14.1761 61.5479 15.2628 62.5648 15.7479 62.3908C15.7479 62.3908 16.8945 62.0949 16.7796 61.6313C16.6662 61.1662 16.4118 60.4524 15.9228 59.6811ZM37.8594 32.352C37.7255 32.5755 37.5522 32.7778 37.3191 32.947C36.3875 33.6207 34.6393 32.9234 32.0689 30.8527C30.7026 29.7217 27.1651 26.0612 27.0777 26.1257C28.5322 31.4666 27.7061 36.0479 26.6036 36.8475C25.0349 37.9856 23.0827 37.7707 20.7549 36.2053C19.0357 35.0578 17.7206 33.7734 16.8095 32.3567C16.1133 31.2785 15.7007 30.6071 15.5707 30.3411C15.0116 29.0724 15.1061 28.1657 15.8621 27.618C16.1252 27.4275 16.5945 27.4487 17.2765 27.6778C17.9537 27.9084 18.338 28.087 18.4144 28.2082C18.5357 28.394 18.6766 28.9583 18.8357 29.9027C18.9956 30.8472 19.1389 31.4115 19.2555 31.5972C19.7138 32.3063 20.4682 32.98 21.518 33.6183C22.7567 34.3487 23.6796 34.4935 24.29 34.0512C25.2192 33.3775 25.4192 31.3784 24.9003 28.054C24.4671 26.195 24.1506 24.3218 23.682 22.4967C23.5087 21.8277 24.2899 21.5161 24.5774 21.3067C25.2436 20.8211 25.987 20.9187 26.806 21.5869C27.1289 21.8962 27.6408 22.8816 28.7181 24.2242C29.8442 25.7118 30.8955 26.5641 31.4814 27.1111C32.0689 27.6589 33.1934 28.368 34.8637 29.2361C36.3757 29.9932 37.1884 30.467 37.305 30.6504C37.305 30.6504 38.5035 31.2958 37.8594 32.352ZM43.2931 10.2016C42.9726 9.83249 42.6214 9.6074 42.1473 9.52476C40.5447 9.24142 39.2627 9.53656 38.9532 9.75772C38.209 10.2913 37.6089 11.7355 37.1656 14.0841C36.6616 16.8843 36.486 18.9078 36.3222 19.2573L35.7378 18.5607C35.1236 17.6194 34.7613 17.0976 34.6519 16.9906C34.3054 16.7309 33.1509 15.9792 32.2957 16.6097C31.2333 17.7068 32.0098 19.0023 32.2335 19.347C33.1714 20.7936 34.481 22.3653 36.1552 24.0645C38.5209 26.4177 40.1841 27.252 41.1432 26.568C41.7087 26.1588 41.8473 25.6708 41.559 25.0931C40.792 23.5694 40.1982 22.2252 39.7872 21.0454C39.2674 19.5752 39.2257 17.7288 39.6643 15.5039C39.9951 13.822 40.4565 12.4777 41.0456 11.4632C41.1039 11.4829 41.9166 11.7206 41.9488 11.7426C42.8686 12.2833 44.1184 11.1429 43.2931 10.2016ZM55.8151 1.80471C55.3938 1.08536 54.315 0.265267 52.8077 0.299109C52.7526 0.299109 51.7808 0.369943 51.2287 0.903554C50.583 1.52531 49.9514 2.85147 49.5277 5.16457C49.0505 7.92471 48.7324 9.47596 48.5749 9.8199C48.5749 9.8199 47.2448 8.13564 47.1416 8.03017C46.8109 7.77439 46.2006 6.98105 44.902 7.65476C43.8144 8.42212 44.6327 10.0111 44.8453 10.348C45.7383 11.7749 46.9794 13.3214 48.5701 14.9962C50.8161 17.3149 52.3927 18.1365 53.3014 17.4605C53.8409 17.0591 53.9748 16.5766 53.7007 16.0076C52.9723 14.5091 52.4108 13.1821 52.0139 12.0236C51.5249 10.5755 51.4847 8.75425 51.9021 6.56314C52.2501 4.72462 52.7612 3.31504 53.4133 2.28716C53.9771 2.45244 54.5189 3.22216 54.9773 3.56846C56.0388 4.37124 56.5538 3.06476 55.8151 1.80471Z" fill="#000000"/>
</g>
<defs>
<clipPath id="clip0_77_100">
<rect width="101.588" height="70.8333" fill="white" transform="translate(0.249878 0.259521)"/>
</clipPath>
</defs>
</svg>
