<svg width="168" height="55" viewBox="0 0 168 55" fill="none" xmlns="http://www.w3.org/2000/svg">
<path fill-rule="evenodd" clip-rule="evenodd" d="M10.9162 46.1228C9.04413 46.5488 8.22865 46.7478 6.96091 47.4168C6.99293 48.5328 7.09098 49.7038 7.22506 50.9508C7.2951 51.6168 8.26968 52.8758 10.6901 51.7588C12.0399 51.1368 11.3635 47.2168 13.6959 45.5108C13.7199 45.4908 13.7349 45.4688 13.7599 45.4498C12.6192 45.7348 11.6787 45.9498 10.9162 46.1228Z" fill="#FFDA47"/>
<path fill-rule="evenodd" clip-rule="evenodd" d="M60.8796 26.6038C58.6433 26.8838 51.7642 26.9368 47.7519 24.2238C47.8499 24.3988 47.945 24.5738 48.057 24.7468C50.3944 28.3298 53.9925 30.1008 56.8742 30.9768C58.1854 30.7862 59.4743 30.4649 60.7215 30.0178C63.306 29.0828 62.3074 26.4278 60.8796 26.6038ZM25.792 6.33878C29.0389 5.17678 33.3084 7.38978 37.1066 11.6798C37.737 11.4218 38.3704 11.1638 39.0117 10.9078C34.9393 6.33778 30.2746 3.99078 26.6845 5.27478C25.3277 5.75978 24.2581 6.72278 23.4726 8.03878C24.099 7.25578 24.8674 6.66878 25.792 6.33878Z" fill="#7C58D3"/>
<path fill-rule="evenodd" clip-rule="evenodd" d="M44.4499 34.8358C43.9306 37.8488 42.915 40.0168 41.4102 40.8708C40.6697 41.2868 39.8592 41.3508 39.0117 41.1148C40.2775 41.7168 41.4932 41.7678 42.5838 41.1498C44.1107 40.2848 45.1854 38.2198 45.8097 35.3838C45.3595 35.1998 44.9072 35.0158 44.4499 34.8358Z" fill="#8D6EC8"/>
<path fill-rule="evenodd" clip-rule="evenodd" d="M37.6569 7.65579C33.5605 3.24879 28.9248 1.14279 25.2026 2.61079C19.045 5.04779 17.7542 16.3388 22.3239 27.8288C26.8916 39.3228 35.5917 46.6638 41.7543 44.2288C44.1107 43.2958 45.7467 41.0648 46.6212 38.0248C46.9184 36.9868 47.4727 44.5838 41.173 46.9188C34.373 49.4388 24.8404 41.3778 19.7584 28.5888C14.6704 15.7998 16.0162 3.27079 22.7602 0.606786C27.1918 -1.14921 32.8561 1.79979 37.6589 7.65679" fill="#7C58D3"/>
<path fill-rule="evenodd" clip-rule="evenodd" d="M18.7468 28.5138C15.3538 20.0868 15.1067 11.7858 17.5962 6.85583C14.4603 8.54783 12.186 15.3688 14.5594 24.5908L14.5484 24.5988C10.9382 26.5658 9.20722 27.1878 5.49504 26.3108C2.52529 25.6058 1.5227 22.5798 1.31158 22.9918C-1.29695 28.0618 4.53147 31.9058 7.94148 31.6548C7.70634 37.0678 4.32135 39.7268 2.80846 41.7888C0.825294 44.4918 0.447072 48.1508 0.164906 52.5978C0.116878 53.3198 0.683211 54.7678 2.73242 53.8228C3.87409 53.2928 3.94613 49.0228 6.01434 47.4348C7.89245 45.9928 8.64489 46.0928 12.225 44.8428C16.2894 43.4248 19.8145 40.8768 20.3097 37.6148C20.5919 38.0468 20.8631 38.4858 21.1673 38.8998C26.1822 45.8798 30.2706 44.5398 30.2706 44.5398C25.1496 41.5158 21.3644 35.0158 18.7468 28.5138Z" fill="#FFDA47"/>
<path fill-rule="evenodd" clip-rule="evenodd" d="M60.6995 7.82076C61.2178 6.19276 62.1784 2.36476 59.905 1.14276C58.9044 0.606756 57.5576 3.00576 54.5519 4.67876C55.9487 5.04776 58.9375 6.02176 60.6995 7.82076Z" fill="#7C58D3"/>
<path fill-rule="evenodd" clip-rule="evenodd" d="M56.5831 9.75382C56.8383 9.7772 57.0739 9.90051 57.2385 10.0968C57.4031 10.2932 57.4833 10.5466 57.4616 10.8018C57.4341 11.0546 57.3086 11.2865 57.1119 11.4478C56.9152 11.609 56.663 11.6867 56.4096 11.6642C56.1562 11.6417 55.9218 11.5207 55.7566 11.3273C55.5915 11.1339 55.5089 10.8835 55.5265 10.6298C55.5513 10.374 55.6763 10.1384 55.8742 9.97433C56.0722 9.81024 56.327 9.73098 56.5831 9.75382ZM62.3615 35.3238C59.6619 35.2358 52.2986 34.0888 48.3583 28.2578C44.576 22.6608 48.6914 16.5298 55.3323 18.3738C65.9576 21.3218 66.3168 15.6448 66.1897 13.8908C63.0439 12.7128 60.8386 12.5108 60.4384 10.4718C59.5728 6.04182 55.4964 5.68182 54.2917 5.25182C54.1086 4.58182 53.1251 1.10182 51.32 1.06782C50.3704 1.04882 51.2079 4.63282 48.4283 7.02982C39.6291 10.3838 31.001 14.7858 23.4716 19.2298C23.9506 21.8565 24.6741 24.4327 25.6329 26.9248C26.5924 29.4299 27.7882 31.8381 29.204 34.1168C31.0811 34.0438 33.3024 34.1108 36.2031 34.2588C45.9849 34.7168 53.1631 40.0038 61.7581 38.3918C64.3026 37.9148 63.7213 35.3688 62.3615 35.3238Z" fill="#7C58D3"/>
<path d="M85.7953 33.3178C85.1869 33.3178 84.7226 33.1498 84.4024 32.8138C84.0822 32.4778 83.9221 32.0058 83.9221 31.3978V18.0778C83.9221 17.4538 84.0822 16.9818 84.4024 16.6618C84.7386 16.3418 85.2109 16.1818 85.8193 16.1818H91.6547C93.5438 16.1818 95.0007 16.6618 96.0253 17.6218C97.0499 18.5658 97.5622 19.8858 97.5622 21.5818C97.5622 23.2778 97.0499 24.6058 96.0253 25.5658C95.0007 26.5258 93.5438 27.0058 91.6547 27.0058H87.6443V31.3978C87.6443 32.0058 87.4842 32.4778 87.1641 32.8138C86.8599 33.1498 86.4036 33.3178 85.7953 33.3178ZM87.6443 24.1258H91.0303C91.9909 24.1258 92.7193 23.9098 93.2156 23.4778C93.7279 23.0458 93.9841 22.4138 93.9841 21.5818C93.9841 20.7498 93.7279 20.1258 93.2156 19.7098C92.7193 19.2938 91.9909 19.0858 91.0303 19.0858H87.6443V24.1258ZM105.048 33.3658C103.655 33.3658 102.454 33.1178 101.445 32.6218C100.453 32.1098 99.6844 31.3978 99.1401 30.4858C98.6118 29.5578 98.3476 28.4698 98.3476 27.2218C98.3476 26.0058 98.6038 24.9418 99.1161 24.0298C99.6088 23.1216 100.35 22.3724 101.253 21.8698C102.182 21.3418 103.23 21.0778 104.399 21.0778C105.248 21.0778 106.016 21.2218 106.705 21.5098C107.393 21.7818 107.985 22.1818 108.482 22.7098C108.978 23.2218 109.354 23.8538 109.61 24.6058C109.866 25.3418 109.994 26.1658 109.994 27.0778C109.994 27.3818 109.898 27.6138 109.706 27.7738C109.514 27.9178 109.234 27.9898 108.866 27.9898H101.325V26.1178H107.377L106.993 26.4538C106.993 25.7978 106.897 25.2538 106.705 24.8218C106.512 24.3738 106.232 24.0378 105.864 23.8138C105.512 23.5898 105.072 23.4778 104.543 23.4778C103.951 23.4778 103.447 23.6138 103.03 23.8858C102.614 24.1578 102.294 24.5498 102.07 25.0618C101.846 25.5738 101.734 26.1898 101.734 26.9098V27.1018C101.734 28.3178 102.014 29.2138 102.574 29.7898C103.15 30.3658 103.999 30.6538 105.12 30.6538C105.504 30.6538 105.944 30.6058 106.44 30.5098C106.937 30.4138 107.401 30.2618 107.833 30.0538C108.201 29.8778 108.53 29.8218 108.818 29.8858C109.106 29.9338 109.33 30.0618 109.49 30.2698C109.65 30.4778 109.738 30.7178 109.754 30.9898C109.786 31.2618 109.73 31.5338 109.586 31.8058C109.442 32.0618 109.202 32.2778 108.866 32.4538C108.287 32.7704 107.664 32.997 107.017 33.1258C106.344 33.2858 105.688 33.3658 105.048 33.3658ZM117.82 33.3658C116.715 33.3658 115.787 33.1818 115.034 32.8138C114.323 32.4703 113.742 31.9063 113.377 31.2058C113.025 30.5018 112.849 29.6138 112.849 28.5418V24.0298H111.841C111.392 24.0298 111.04 23.9098 110.784 23.6698C110.544 23.4298 110.424 23.1018 110.424 22.6858C110.424 22.2378 110.544 21.9018 110.784 21.6778C111.04 21.4378 111.392 21.3178 111.841 21.3178H112.849V19.4938C112.849 18.8858 113.009 18.4298 113.329 18.1258C113.65 17.8058 114.098 17.6458 114.674 17.6458C115.267 17.6458 115.715 17.8058 116.019 18.1258C116.323 18.4298 116.475 18.8858 116.475 19.4938V21.3178H118.757C119.205 21.3178 119.549 21.4378 119.789 21.6778C120.029 21.9018 120.149 22.2378 120.149 22.6858C120.149 23.1018 120.029 23.4298 119.789 23.6698C119.549 23.9098 119.205 24.0298 118.757 24.0298H116.475V28.3978C116.475 29.0698 116.627 29.5738 116.932 29.9098C117.252 30.2458 117.756 30.4138 118.444 30.4138C118.685 30.4138 118.909 30.3898 119.117 30.3418C119.325 30.2938 119.517 30.2618 119.693 30.2458C119.796 30.2349 119.9 30.2488 119.996 30.2864C120.092 30.324 120.178 30.3842 120.246 30.4618C120.39 30.6058 120.462 30.9338 120.462 31.4458C120.462 31.8298 120.398 32.1658 120.27 32.4538C120.205 32.5975 120.112 32.7268 119.997 32.834C119.881 32.9411 119.745 33.0241 119.597 33.0778C119.389 33.1578 119.101 33.2218 118.733 33.2698C118.432 33.3286 118.126 33.3607 117.82 33.3658ZM127.292 33.3658C126.027 33.3658 124.922 33.1178 123.978 32.6218C123.062 32.1386 122.31 31.3954 121.816 30.4858C121.304 29.5578 121.048 28.4618 121.048 27.1978C121.048 26.2538 121.192 25.4058 121.48 24.6538C121.75 23.9298 122.176 23.2742 122.729 22.7338C123.296 22.1855 123.976 21.7678 124.722 21.5098C125.491 21.2218 126.347 21.0778 127.292 21.0778C128.556 21.0778 129.653 21.3258 130.582 21.8218C131.502 22.295 132.263 23.0298 132.767 23.9338C133.295 24.8458 133.559 25.9338 133.559 27.1978C133.559 28.1578 133.407 29.0138 133.103 29.7658C132.83 30.495 132.404 31.1577 131.854 31.7098C131.289 32.2668 130.609 32.6928 129.861 32.9578C129.093 33.2298 128.236 33.3658 127.292 33.3658ZM127.292 30.6538C127.82 30.6538 128.276 30.5258 128.66 30.2698C129.045 30.0138 129.349 29.6378 129.573 29.1418C129.797 28.6298 129.909 27.9818 129.909 27.1978C129.909 26.0298 129.669 25.1738 129.189 24.6298C128.708 24.0698 128.076 23.7898 127.292 23.7898C126.779 23.7898 126.323 23.9098 125.923 24.1498C125.539 24.3898 125.234 24.7658 125.01 25.2778C124.802 25.7738 124.698 26.4138 124.698 27.1978C124.698 28.3658 124.938 29.2378 125.419 29.8138C125.899 30.3738 126.523 30.6538 127.292 30.6538ZM137.591 37.6378C136.998 37.6378 136.542 37.4778 136.222 37.1578C135.918 36.8538 135.766 36.3978 135.766 35.7898V22.9498C135.766 22.3578 135.918 21.9098 136.222 21.6058C136.542 21.2858 136.982 21.1258 137.543 21.1258C138.135 21.1258 138.583 21.2858 138.887 21.6058C139.192 21.9098 139.344 22.3578 139.344 22.9498V24.5818L139.08 23.6458C139.32 22.8778 139.8 22.2618 140.52 21.7978C141.257 21.3178 142.097 21.0778 143.042 21.0778C144.067 21.0778 144.963 21.3258 145.731 21.8218C146.516 22.3178 147.124 23.0218 147.557 23.9338C147.989 24.8458 148.205 25.9338 148.205 27.1978C148.205 28.4618 147.989 29.5578 147.557 30.4858C147.124 31.4138 146.524 32.1258 145.756 32.6218C144.987 33.1178 144.083 33.3658 143.042 33.3658C142.113 33.3658 141.289 33.1418 140.568 32.6938C139.848 32.2298 139.36 31.6298 139.104 30.8938H139.392V35.7898C139.392 36.3978 139.232 36.8538 138.911 37.1578C138.607 37.4778 138.167 37.6378 137.591 37.6378ZM141.961 30.6538C142.474 30.6538 142.922 30.5258 143.306 30.2698C143.706 30.0138 144.01 29.6378 144.219 29.1418C144.443 28.6298 144.555 27.9818 144.555 27.1978C144.555 26.0298 144.315 25.1738 143.834 24.6298C143.354 24.0698 142.73 23.7898 141.961 23.7898C141.449 23.7898 140.993 23.9098 140.592 24.1498C140.208 24.3898 139.904 24.7658 139.68 25.2778C139.456 25.7738 139.344 26.4138 139.344 27.1978C139.344 28.3658 139.584 29.2378 140.064 29.8138C140.544 30.3738 141.177 30.6538 141.961 30.6538ZM152.248 33.2938C151.656 33.2938 151.2 33.1258 150.88 32.7898C150.575 32.4378 150.423 31.9498 150.423 31.3258V23.1178C150.423 22.4778 150.575 21.9898 150.88 21.6538C151.2 21.3018 151.656 21.1258 152.248 21.1258C152.825 21.1258 153.265 21.3018 153.569 21.6538C153.889 21.9898 154.049 22.4778 154.049 23.1178V31.3258C154.049 31.9498 153.897 32.4378 153.593 32.7898C153.289 33.1258 152.841 33.2938 152.248 33.2938ZM152.248 19.1578C151.576 19.1578 151.056 19.0058 150.687 18.7018C150.335 18.3818 150.159 17.9338 150.159 17.3578C150.159 16.7658 150.335 16.3178 150.687 16.0138C151.056 15.6938 151.576 15.5338 152.248 15.5338C152.921 15.5338 153.433 15.6938 153.785 16.0138C154.137 16.3178 154.314 16.7658 154.314 17.3578C154.314 17.9338 154.137 18.3818 153.785 18.7018C153.433 19.0058 152.921 19.1578 152.248 19.1578ZM160.835 33.3658C159.971 33.3658 159.194 33.1978 158.506 32.8618C157.818 32.5258 157.281 32.0698 156.897 31.4938C156.513 30.9188 156.312 30.2411 156.321 29.5498C156.321 28.6858 156.545 28.0058 156.993 27.5098C157.441 26.9978 158.17 26.6378 159.178 26.4298C160.187 26.2058 161.524 26.0938 163.189 26.0938H164.461V27.9658H163.213C162.396 27.9658 161.732 28.0138 161.22 28.1098C160.723 28.1898 160.363 28.3338 160.139 28.5418C159.931 28.7498 159.827 29.0378 159.827 29.4058C159.827 29.8538 159.979 30.2218 160.283 30.5098C160.603 30.7978 161.059 30.9418 161.652 30.9418C162.081 30.951 162.504 30.8431 162.877 30.6298C163.237 30.4138 163.535 30.1078 163.741 29.7418C163.949 29.3578 164.053 28.9258 164.053 28.4458V25.6858C164.053 24.9818 163.893 24.4858 163.573 24.1978C163.253 23.8938 162.708 23.7418 161.94 23.7418C161.508 23.7418 161.035 23.7978 160.523 23.9098C159.957 24.027 159.402 24.1957 158.866 24.4138C158.514 24.5738 158.202 24.6138 157.93 24.5338C157.673 24.4497 157.453 24.2803 157.305 24.0538C157.164 23.8227 157.089 23.5568 157.089 23.2858C157.089 22.9978 157.169 22.7258 157.329 22.4698C157.489 22.1978 157.754 21.9978 158.122 21.8698C158.802 21.587 159.51 21.3778 160.235 21.2458C160.846 21.1393 161.464 21.0831 162.084 21.0778C163.317 21.0778 164.325 21.2618 165.11 21.6298C165.91 21.9818 166.511 22.5338 166.911 23.2858C167.311 24.0218 167.511 24.9738 167.511 26.1418V31.4698C167.511 32.0618 167.367 32.5178 167.079 32.8378C166.791 33.1578 166.375 33.3178 165.83 33.3178C165.286 33.3178 164.862 33.1578 164.558 32.8378C164.269 32.5178 164.125 32.0618 164.125 31.4698V30.5818L164.293 30.7258C164.209 31.2432 163.994 31.7306 163.669 32.1418C163.354 32.5342 162.951 32.8467 162.492 33.0538C162.012 33.2618 161.46 33.3658 160.835 33.3658Z" fill="#7C58D3"/>
</svg>
