<svg width="76" height="77" viewBox="0 0 76 77" fill="none" xmlns="http://www.w3.org/2000/svg">
<g clip-path="url(#clip0_77_139)">
<path d="M1.42566 63.3088L12.0844 73.8759C13.6578 75.4885 15.7433 76.0348 17.7744 76.0372C26.7563 75.7683 35.2463 71.3588 42.2172 66.8311C53.6593 58.5118 64.158 48.1963 70.7472 35.7304C73.2744 30.503 76.2397 23.8333 75.9564 17.9985C75.9311 15.8037 75.3393 13.6495 73.7926 12.2347L63.1339 1.58763C60.9205 -0.293897 58.7801 0.356636 57.3637 2.54825L48.7888 18.7991C47.8862 20.7243 48.4039 22.7871 49.7505 24.1628L53.6774 28.0854C53.9198 28.4173 54.0742 28.7951 54.0781 29.2062C52.5723 35.0317 48.0104 40.401 43.9804 44.0961C39.9505 47.7912 35.6187 52.7974 29.9958 53.9826C29.3008 54.1763 28.4495 54.2444 27.9523 53.7824L23.3841 49.1393C21.8094 47.9465 19.5357 47.3635 17.8545 48.3388H17.7744L2.30728 57.4649C0.0366974 58.8873 -0.200058 61.6363 1.42566 63.3088Z" fill="#7C58D3"/>
</g>
<defs>
<clipPath id="clip0_77_139">
<rect width="75.6" height="75.5556" fill="white" transform="matrix(-1 0 0 1 75.9752 0.481689)"/>
</clipPath>
</defs>
</svg>
