<svg width="67" height="55" viewBox="0 0 67 55" fill="none" xmlns="http://www.w3.org/2000/svg">
<path fill-rule="evenodd" clip-rule="evenodd" d="M11.5293 46.3234C9.65761 46.7522 8.84231 46.9525 7.57483 47.6259C7.60684 48.7492 7.70488 49.9279 7.83893 51.1831C7.90895 51.8535 8.88332 53.1207 11.3032 51.9964C12.6527 51.3703 11.9765 47.4245 14.3084 45.7073C14.3324 45.6872 14.3474 45.6651 14.3724 45.6459C13.232 45.9328 12.2916 46.1492 11.5293 46.3234Z" fill="#FFDA47"/>
<path fill-rule="evenodd" clip-rule="evenodd" d="M61.4822 26.6761C59.2464 26.958 52.3688 27.0113 48.3573 24.2805C48.4553 24.4566 48.5503 24.6328 48.6624 24.8069C50.9993 28.4135 54.5966 30.1961 57.4777 31.0779C58.7886 30.886 60.0772 30.5626 61.3241 30.1126C63.9081 29.1714 62.9097 26.499 61.4822 26.6761ZM26.402 6.27799C29.6482 5.10835 33.9168 7.33589 37.7143 11.6541C38.3445 11.3944 38.9777 11.1347 39.619 10.877C35.5474 6.27698 30.8837 3.91456 27.2943 5.207C25.9378 5.69519 24.8684 6.66451 24.0831 7.98916C24.7094 7.20101 25.4777 6.61016 26.402 6.27799Z" fill="#7C58D3"/>
<path fill-rule="evenodd" clip-rule="evenodd" d="M45.0559 34.9622C44.5367 37.995 43.5214 40.1773 42.0168 41.0369C41.2765 41.4556 40.4662 41.52 39.6189 41.2825C40.8844 41.8884 42.0998 41.9398 43.1902 41.3177C44.7168 40.447 45.7912 38.3685 46.4155 35.5138C45.9653 35.3286 45.5131 35.1434 45.0559 34.9622Z" fill="#8D6EC8"/>
<path fill-rule="evenodd" clip-rule="evenodd" d="M38.2644 7.60363C34.1689 3.16768 29.5341 1.04784 25.8127 2.52549C19.6564 4.9785 18.3659 16.3437 22.9347 27.9092C27.5014 39.4787 36.1997 46.8679 42.361 44.4169C44.7169 43.4778 46.3525 41.2321 47.2268 38.1722C47.5239 37.1273 48.0781 44.7743 41.7798 47.1246C34.9812 49.6611 25.4506 41.5472 20.3697 28.6742C15.2828 15.8011 16.6283 3.18982 23.3708 0.508321C27.8015 -1.25922 33.4646 1.70916 38.2664 7.60464" fill="#7C58D3"/>
<path fill-rule="evenodd" clip-rule="evenodd" d="M19.3585 28.5987C15.9662 20.1163 15.7191 11.7608 18.208 6.79837C15.0729 8.50149 12.799 15.3673 15.1719 24.6499L15.1609 24.6579C11.5515 26.6379 9.82088 27.2639 6.10948 26.3812C3.14036 25.6716 2.13799 22.6257 1.92691 23.0404C-0.681075 28.1437 5.14612 32.0129 8.5554 31.7603C8.32031 37.2089 4.93604 39.8853 3.42347 41.9609C1.44072 44.6816 1.06258 48.3647 0.780476 52.8409C0.732457 53.5676 1.29867 55.0251 3.34744 54.0739C4.48887 53.5405 4.5609 49.2424 6.62868 47.644C8.50638 46.1925 9.25867 46.2932 12.838 45.0349C16.9015 43.6076 20.4259 41.0429 20.9211 37.7595C21.2032 38.1943 21.4743 38.6362 21.7784 39.0529C26.7923 46.0788 30.8798 44.7299 30.8798 44.7299C25.7599 41.6861 21.9755 35.1434 19.3585 28.5987Z" fill="#FFDA47"/>
<path fill-rule="evenodd" clip-rule="evenodd" d="M61.3021 7.76973C61.8203 6.13104 62.7806 2.27789 60.5078 1.04786C59.5074 0.508338 58.1609 2.9231 55.1558 4.60709C56.5523 4.97852 59.5404 5.95891 61.3021 7.76973Z" fill="#7C58D3"/>
<path fill-rule="evenodd" clip-rule="evenodd" d="M57.1865 9.71543C57.4417 9.73896 57.6772 9.86308 57.8418 10.0607C58.0063 10.2583 58.0865 10.5134 58.0648 10.7703C58.0374 11.0248 57.9118 11.2582 57.7152 11.4205C57.5185 11.5828 57.2664 11.661 57.0131 11.6384C56.7597 11.6157 56.5253 11.4939 56.3602 11.2993C56.1951 11.1046 56.1125 10.8525 56.1301 10.5972C56.1549 10.3397 56.2799 10.1025 56.4778 9.93739C56.6757 9.77222 56.9304 9.69244 57.1865 9.71543ZM62.9637 35.4534C60.2647 35.3649 52.9029 34.2103 48.9634 28.341C45.182 22.7072 49.2965 16.5359 55.936 18.3921C66.559 21.3594 66.9182 15.6451 66.7911 13.8796C63.6459 12.6939 61.4411 12.4905 61.0409 10.4381C60.1756 5.97904 56.1001 5.61668 54.8956 5.18385C54.7126 4.50945 53.7292 1.00659 51.9245 0.972366C50.9752 0.953241 51.8125 4.56079 49.0334 6.97354C40.2361 10.3496 31.6099 14.7805 24.082 19.2537C24.5609 21.8976 25.2843 24.4908 26.2428 26.9992C27.2022 29.5208 28.3977 31.9448 29.8132 34.2385C31.6899 34.165 33.9107 34.2325 36.8108 34.3814C46.5905 34.8424 53.7672 40.1642 62.3604 38.5416C64.9044 38.0615 64.3232 35.4987 62.9637 35.4534Z" fill="#7C58D3"/>
</svg>
